<svg xmlns="http://www.w3.org/2000/svg" width="364" height="850" viewBox="0 0 364 850"
     preserveAspectRatio="xMidYMid meet" data-id="back"
     class="body-regions-image body-regions-display--element body-regions-image__interactive">
    <g data-id="subregions">
        <path data-name="B 16 R"
              d="M248.742 788.388a2.742 2.742 0 0 0-3.481-2.238 15.045 15.045 0 0 0-1.56-1.96 2.782 2.782 0 0 0-2.249-1.15c-.052 0-.1.013-.152.016-.07-.015-.14-.05-.211-.069a1.953 1.953 0 0 0-1.087-1.048 2.669 2.669 0 0 0-2.01-.28l-.82-.349c-.036-.05-.078-.095-.118-.141a2.803 2.803 0 0 0-3.44-1.016c-.066.009-.134.009-.2.02a8.745 8.745 0 0 1-1.186-.534c-3.254-1.752-2.753-8.01-2.753-10.762a34.636 34.636 0 0 1 .769-5.305c-7.287 6.282-15.291 10.566-20.022 10.815q-.464.025-.915.024a16.552 16.552 0 0 1-4.93-.764c-.49 14.833-.672 21.147-.682 21.494a.257.257 0 0 1-.002.032c-.066.537-1.665 13.767-1.5 18.254.15 4.052-.832 12.197 7.177 12.197 4.172 0 9.004-5.455 14.509-9.198 7.746-5.267 12.681-8.13 16.16-12.926 3.328-4.591 7.682-6.817 8.633-9.514a7.72 7.72 0 0 0 .075-5.587z"
              data-id="B_16_R"/>
        <path data-name="B 15 R"
              d="M204.696 764.122l-.151 4.504-.028.834a13.245 13.245 0 0 0 5.495.933c4.291-.226 13.713-5.449 21.507-13.45l.22-1.146c.098-.604.18-1.174.239-1.687.481-4.227 7.509-48.053 10.262-63.07 2.753-15.017 1.252-55.812 1.252-63.57 0-1.631-.07-3.466-.177-5.362a63.463 63.463 0 0 1-26.49 10.293 35.103 35.103 0 0 1-4.598.304 34.124 34.124 0 0 1-16.798-4.403l-.079 1.537c-.546 10.537-1.233 23.61-.916 32.169.5 13.515 8.76 41.797 8.76 52.308s2.253 27.53 1.502 49.806z"
              data-id="B_15_R"/>
        <path data-name="B 14 R"
              d="M195.655 623.8a30.126 30.126 0 0 0 20.647 4.636c10.959-1.447 20.433-6.49 26.678-10.992l-.201-2.452c-.425-4.672-.907-8.725-1.04-10.048-.245-2.452.471-14.997.5-15.501a.256.256 0 0 1 .004-.034c.035-.227.391-2.526.951-6.174l.11-.712a125.358 125.358 0 0 1-29.071 3.447 129.63 129.63 0 0 1-24.324-2.353l.02.271a68.752 68.752 0 0 0 1.001 8.543c2.003 6.507 5.006 14.766 5.006 23.025 0 1.967-.114 4.879-.28 8.345z"
              data-id="B_14_R"/>
        <path data-name="B 13 R"
              d="M254.672 449.614c-7.8 13.435-20.935 21.052-36.189 21.052q-.684 0-1.375-.02c-13.244-.393-24.337-3.729-32.437-6.163l-1.161-.349a18.98 18.98 0 0 0-.055 1.835c.38 8.263 3.828 82.732 6.128 113.507a122.116 122.116 0 0 0 54.373-1.225c2.73-17.882 7.829-51.784 8.546-60.153.845-9.87 2.267-56.931 2.464-67.659.001-.06-.007-.542-.022-1.323-.09.165-.178.338-.272.498z"
              data-id="B_13_R"/>
        <path data-name="B 12 R"
              d="M359.254 459.751c-.452-2.032-10.979-16.727-11.746-17.844-1.777-2.585-13.227-15.058-16.08-19.289a20.98 20.98 0 0 1-1.542-2.854 85.51 85.51 0 0 1-23.387 9.132c.07.272.14.546.2.805 2.854 12.364 3.511 21.95 5.214 26.211 2.736 6.845 6.229 10.39 6.907 15.811s4.77 17.987 7.002 20.943c1.423 1.884 1.57 2.357 2.195 3.062 1.492 1.682 6.163 4.166 7.97 4.166 1.017 0 1.461-1 1.656-1.876a.497.497 0 0 1 .882-.208c.968 1.27 2.825 3.213 5.142 3.213 2.349 0 1.947-3.9 1.592-5.88a.498.498 0 0 1 .743-.514 10.889 10.889 0 0 0 2.86 1.199c2.246.387 3.04-1.943 2.922-3.102-.152-1.512-1.178-12.912-1.178-15.23 0-1.923-2.029-12.502-2.947-17.19a.5.5 0 0 1 .893-.389c8.152 10.85 10.702 5.933 10.702 5.933 1.58-1.807.451-4.065 0-6.099z"
              data-id="B_12_R"/>
        <path data-name="B 10 R"
              d="M254.078 420.204l-.002.004c-.023-.255-.045-.512-.07-.751-.944-8.877-5.274-33.92-8.815-57.873-20.227 7.628-44.193 10.732-61.19 11.097v87.425l1.821.545c7.887 2.372 18.688 5.619 31.405 5.997 14.526.42 26.606-6.33 33.986-19.041a33.84 33.84 0 0 0 3.482-9.671c-.204-8.435-.472-17.987-.617-17.732z"
              data-id="B_10_R"/>
        <path data-name="B 09 R"
              d="M328.27 415.764a103.494 103.494 0 0 1-3.46-12.376 55.193 55.193 0 0 1-24.347 8.997l.047.11c1.894 4.443 3.626 8.824 4.856 12.566a81.176 81.176 0 0 0 23.012-9.027z"
              data-id="B_09_R"/>
        <path data-name="B 08 R"
              d="M242.527 286.434c-10.97-2.77-30.185-6.53-58.527-6.826v89.073c16.881-.37 40.727-3.484 60.599-11.153l-.142-.974c-2.317-16.128-4.134-31.191-4.134-39.764 0-5.959.89-17.103 2.186-30.182z"
              data-id="B_08_R"/>
        <path data-name="B 07 R"
              d="M323.858 398.752c-1.135-5.975-2.151-13.071-2.891-21.359-2.378-26.63-6.658-41.37-9.035-52.308a44.211 44.211 0 0 0-3.8-10.315l-.1-.187c-11.927 8.034-26.207 13.163-39.424 14.051l.05.527a94.934 94.934 0 0 0 2.136 11.616c1.492 6.285 16.406 43.036 17.833 46.127.813 1.762 5.646 11.41 10.18 21.668 9.826-1.119 17.892-4.13 25.133-9.42z"
              data-id="B_07_R"/>
        <path data-name="B 06 R"
              d="M301.702 303.472c0-.997-2.85-14.721-5.229-27.952l-.114-.65a81.38 81.38 0 0 0-36.794 8.748c1.646 9.176 4.833 17.992 6.236 24.586a111.475 111.475 0 0 1 2.443 16.45c12.679-.825 26.43-5.8 37.874-13.6-2.339-4.033-4.416-6.849-4.416-7.582z"
              data-id="B_06_R"/>
        <path data-name="B 05 R"
              d="M293.92 259.726c-2.119-16.17-3.444-33.443-5.04-48.798l-.273-2.52c-15.924 6.061-28.236 15.876-38.405 30.295a5.05 5.05 0 0 1 .187 1.124c.416 9.523 6.054 24.973 8.346 38.928l.124.746a85.752 85.752 0 0 1 36.8-8.614c-.698-4.057-1.313-7.916-1.738-11.16z"
              data-id="B_05_R"/>
        <path data-name="B 04 R"
              d="M247.159 192.967c-4.232-11.243-11.536-17.874-21.709-19.71-11.513-2.075-14.184-7.772-17.532-20.275a49.723 49.723 0 0 1-1.463-12.316 48.994 48.994 0 0 1-6.879-2.308A53.094 53.094 0 0 0 184 135.147v140.46c28.304.292 47.676 3.999 58.93 6.804 1.34-13.515-.96-35.635 2.973-44.585-.003-2.396.061-4.952.252-7.351.32-4 .787-7.862 1.24-11.596 1.243-10.264 2.318-19.128-.236-25.912z"
              data-id="B_04_R"/>
        <path data-name="B 03 R"
              d="M210.694 141.658c-.085-.081-.169-.183-.253-.275a44.608 44.608 0 0 0 1.34 10.563c3.324 12.41 5.363 15.75 14.38 17.375 11.655 2.102 19.979 9.584 24.741 22.237 2.9 7.701 1.77 17.016.464 27.802-.448 3.695-.91 7.516-1.223 11.433-.036.452-.067.925-.095 1.41a83.318 83.318 0 0 1 38.109-27.898c-.217-1.884-.44-3.736-.673-5.536-4.031-31.086-26.802-39.835-26.802-39.835-11.323-4.788-21.964-8.787-36.48-11.889-7.125-1.522-11.103-3.07-13.508-5.387z"
              data-id="B_03_R"/>
        <path data-name="B 01 R"
              d="M223.163 72.923a2.59 2.59 0 0 0-2.824.066.48.48 0 0 1-.274.119 3.209 3.209 0 0 0-.373-.126.482.482 0 0 1-.164-.45 87.193 87.193 0 0 0 .894-13.758c0-30.191-28.56-33.938-36.422-34.398v84.2a25.975 25.975 0 0 1 12.765 5 38.865 38.865 0 0 1 8.309 7.875c4.828-6.977 5.133-10.144 5.616-11.776 1.057-3.573 1.974-8.613 3.395-12.048a124.05 124.05 0 0 1 1.35-2.457 3.68 3.68 0 0 1 1.34-1.153c3.21-1.43 5.03-6.787 6.064-8.608.97-1.71 3.627-11 .324-12.486z"
              data-id="B_01_R"/>
        <path data-name="B 16 L"
              d="M160.305 795.14c-.01-.346-.193-6.66-.683-21.493a16.552 16.552 0 0 1-4.93.764q-.45 0-.914-.024c-4.73-.25-12.735-4.533-20.022-10.815a34.636 34.636 0 0 1 .77 5.305c0 2.753.5 9.01-2.754 10.762a8.745 8.745 0 0 1-1.187.534c-.065-.011-.133-.011-.199-.02a2.803 2.803 0 0 0-3.44 1.016c-.04.046-.082.091-.117.141l-.822.349a2.669 2.669 0 0 0-2.01.28 1.953 1.953 0 0 0-1.086 1.048c-.07.02-.14.054-.21.07-.052-.004-.101-.016-.153-.016a2.782 2.782 0 0 0-2.248 1.149 15.045 15.045 0 0 0-1.56 1.96 2.742 2.742 0 0 0-3.482 2.238l-.005.01a7.72 7.72 0 0 0 .075 5.588c.951 2.697 5.305 4.923 8.634 9.514 3.478 4.797 8.413 7.659 16.16 12.926 5.504 3.743 10.336 9.198 14.508 9.198 8.01 0 7.028-8.145 7.177-12.197.165-4.487-1.434-17.717-1.5-18.254a.257.257 0 0 1-.002-.032z"
              data-id="B_16_L"/>
        <path data-name="B 15 L"
              d="M168.571 628.302a34.124 34.124 0 0 1-16.798 4.403 35.103 35.103 0 0 1-4.599-.304 63.463 63.463 0 0 1-26.489-10.293 97.326 97.326 0 0 0-.177 5.362c0 7.758-1.501 48.553 1.252 63.57 2.753 15.017 9.78 58.843 10.262 63.07.059.513.141 1.083.24 1.687l.219 1.147c7.794 8 17.216 13.223 21.507 13.449a13.245 13.245 0 0 0 5.495-.933l-.028-.834-.151-4.505c-.75-22.274 1.502-39.293 1.502-49.805s8.26-38.793 8.76-52.308c.317-8.56-.37-21.632-.916-32.169z"
              data-id="B_15_L"/>
        <path data-name="B 14 L"
              d="M120.697 582.523l.109.712c.56 3.648.916 5.947.951 6.174a.256.256 0 0 1 .004.034c.029.503.745 13.05.5 15.501-.133 1.323-.615 5.376-1.04 10.048l-.2 2.452c6.244 4.501 15.718 9.545 26.677 10.992a30.126 30.126 0 0 0 20.647-4.635c-.167-3.467-.28-6.378-.28-8.345 0-8.259 3.002-16.518 5.005-23.025a68.752 68.752 0 0 0 1-8.543l.021-.271a129.63 129.63 0 0 1-24.324 2.353 125.358 125.358 0 0 1-29.07-3.447z"
              data-id="B_14_L"/>
        <path data-name="B 13 L"
              d="M179.33 464.483c-8.1 2.434-19.194 5.77-32.438 6.163q-.69.02-1.375.02c-15.254 0-28.389-7.617-36.19-21.052-.093-.16-.18-.333-.271-.498-.015.78-.023 1.263-.022 1.323.197 10.728 1.619 57.79 2.464 67.659.717 8.369 5.816 42.271 8.545 60.153a122.116 122.116 0 0 0 54.374 1.225c2.3-30.775 5.748-105.244 6.128-113.507a18.98 18.98 0 0 0-.055-1.835l-1.16.349z"
              data-id="B_13_L"/>
        <path data-name="B 12 L"
              d="M32.572 422.618c-2.853 4.23-14.303 16.704-16.08 19.29-.767 1.116-11.294 15.81-11.746 17.843-.451 2.034-1.58 4.292 0 6.1 0 0 2.55 4.917 10.702-5.933a.5.5 0 0 1 .893.389c-.918 4.687-2.947 15.266-2.947 17.189 0 2.318-1.026 13.718-1.178 15.23-.117 1.16.676 3.49 2.921 3.102a10.889 10.889 0 0 0 2.861-1.199.498.498 0 0 1 .743.515c-.355 1.979-.757 5.88 1.592 5.88 2.317 0 4.174-1.943 5.142-3.214a.497.497 0 0 1 .882.208c.195.876.64 1.876 1.656 1.876 1.807 0 6.478-2.484 7.97-4.166.625-.705.772-1.178 2.195-3.062 2.233-2.955 6.325-15.522 7.002-20.943s4.17-8.966 6.907-15.81c1.703-4.262 2.36-13.847 5.214-26.212.06-.259.13-.533.2-.805a85.51 85.51 0 0 1-23.387-9.131 20.98 20.98 0 0 1-1.542 2.853z"
              data-id="B_12_L"/>
        <path data-name="B 10 L"
              d="M180 372.681c-16.997-.365-40.964-3.47-61.191-11.097-3.54 23.954-7.871 48.996-8.815 57.873-.025.239-.047.496-.07.75l-.002-.003c-.145-.255-.413 9.297-.617 17.732a33.84 33.84 0 0 0 3.481 9.67c7.381 12.712 19.461 19.462 33.987 19.042 12.717-.378 23.518-3.625 31.405-5.997.625-.188 1.23-.369 1.822-.545z"
              data-id="B_10_L"/>
        <path data-name="B 09 L"
              d="M35.73 415.764l-.108.27a81.176 81.176 0 0 0 23.012 9.027c1.23-3.742 2.962-8.123 4.856-12.566l.047-.11a55.193 55.193 0 0 1-24.347-8.997 103.494 103.494 0 0 1-3.46 12.376z"
              data-id="B_09_L"/>
        <path data-name="B 08 L"
              d="M180 279.608c-28.341.295-47.557 4.056-58.527 6.826l.018.174c1.296 13.08 2.186 24.223 2.186 30.182 0 8.573-1.817 23.636-4.134 39.764l-.142.974c19.872 7.669 43.719 10.784 60.6 11.153z"
              data-id="B_08_L"/>
        <path data-name="B 07 L"
              d="M55.868 314.77a44.211 44.211 0 0 0-3.8 10.315c-2.377 10.937-6.657 25.679-9.035 52.308-.74 8.288-1.756 15.384-2.891 21.36l-.082.4c7.24 5.29 15.307 8.3 25.134 9.42 4.533-10.26 9.366-19.907 10.18-21.669 1.426-3.091 16.34-39.842 17.832-46.127a94.934 94.934 0 0 0 2.137-11.616l.049-.527c-13.217-.888-27.497-6.017-39.423-14.05z"
              data-id="B_07_L"/>
        <path data-name="B 06 L"
              d="M67.527 275.52c-2.38 13.231-5.229 26.955-5.229 27.952 0 .733-2.077 3.55-4.416 7.583 11.444 7.799 25.195 12.774 37.874 13.599a111.475 111.475 0 0 1 2.443-16.45c1.403-6.594 4.59-15.41 6.236-24.586a81.38 81.38 0 0 0-36.794-8.748z"
              data-id="B_06_L"/>
        <path data-name="B 05 L"
              d="M113.798 238.703c-10.169-14.42-22.48-24.234-38.405-30.295l-.274 2.52c-1.595 15.355-2.92 32.628-5.04 48.798-.425 3.245-1.04 7.104-1.737 11.161a85.752 85.752 0 0 1 36.799 8.614l.124-.746c2.292-13.955 7.93-29.405 8.346-38.928a5.05 5.05 0 0 1 .187-1.124z"
              data-id="B_05_L"/>
        <path data-name="B 04 L"
              d="M180 135.147a53.09 53.09 0 0 0-15.576 3.211 48.994 48.994 0 0 1-6.879 2.308 49.723 49.723 0 0 1-1.463 12.316c-3.348 12.503-6.019 18.2-17.532 20.276-10.173 1.835-17.477 8.466-21.709 19.709-2.554 6.784-1.48 15.648-.236 25.912.453 3.734.92 7.597 1.24 11.596.19 2.4.255 4.955.252 7.35 3.933 8.95 1.632 31.07 2.973 44.586 11.254-2.805 30.626-6.512 58.93-6.803z"
              data-id="B_04_L"/>
        <path data-name="B 03 L"
              d="M113.952 232.203a64.805 64.805 0 0 0-.095-1.41c-.312-3.917-.775-7.738-1.223-11.434-1.306-10.785-2.435-20.1.464-27.801 4.762-12.653 13.086-20.135 24.742-22.237 9.016-1.626 11.055-4.965 14.378-17.375a44.608 44.608 0 0 0 1.34-10.563c-.083.092-.167.194-.252.275-2.405 2.316-6.383 3.865-13.508 5.387-14.516 3.102-25.157 7.1-36.48 11.889 0 0-22.77 8.749-26.802 39.835-.234 1.8-.456 3.652-.673 5.536a83.318 83.318 0 0 1 38.11 27.898z"
              data-id="B_03_L"/>
        <path data-name="B 02"
              d="M182 131.088a56.746 56.746 0 0 1 19.062 3.556 51.061 51.061 0 0 0 5.484 1.935 76.1 76.1 0 0 1 .146-2.161c-1.014-2.545-1.872-5.127-2.46-6.813-.01-.026-.017-.051-.026-.078a30.803 30.803 0 0 0-9.801-10.722A21.385 21.385 0 0 0 182 112.477a21.385 21.385 0 0 0-12.405 4.328 30.803 30.803 0 0 0-9.8 10.722l-.026.078c-.59 1.686-1.447 4.268-2.461 6.813.057.719.109 1.44.146 2.161a51.061 51.061 0 0 0 5.484-1.935A56.746 56.746 0 0 1 182 131.088z"
              data-id="B_02"/>
        <path data-name="B 01 L"
              d="M180 24.376c-7.862.46-36.422 4.206-36.422 34.398a87.193 87.193 0 0 0 .894 13.758.482.482 0 0 1-.164.45 3.209 3.209 0 0 0-.373.126.48.48 0 0 1-.274-.119 2.59 2.59 0 0 0-2.824-.066c-3.303 1.486-.646 10.777.324 12.486 1.034 1.82 2.854 7.178 6.064 8.608a3.68 3.68 0 0 1 1.34 1.153c.344.601.825 1.48 1.35 2.457 1.421 3.435 2.338 8.475 3.395 12.048.483 1.632.788 4.8 5.616 11.776a38.865 38.865 0 0 1 8.309-7.876 25.975 25.975 0 0 1 12.765-5z"
              data-id="B_01_L"/>
    </g>
</svg>