<svg xmlns="http://www.w3.org/2000/svg" width="364" height="850" viewBox="0 0 364 850"
     preserveAspectRatio="xMidYMid meet" data-id="front"
     class="body-regions-image body-regions-display--element body-regions-image__interactive">
    <g data-id="subregions">
        <path data-name="F 16 L"
              d="M250.25 814.415a.44.44 0 0 0-.04-.046l-2.806-2.811s-8.152-9.005-9.483-11.34a64.171 64.171 0 0 1-4.991-14.676 43.115 43.115 0 0 1-.543-9.023 93.15 93.15 0 0 1-15.34 1.26 82.798 82.798 0 0 1-13.133-1.003c-1.12 18.499-2.557 20.421 2.52 29.112 5.117 8.754 5.865 20.136 9.11 26.14 3.244 6.003 9.476 10.132 14.724 9.13 6.742-1.287 3.675-5.168 4.991-4.127 2.011 1.59 4.094 2.879 7.736 1.751a1.513 1.513 0 0 0 1.034-2.024.498.498 0 0 1 .748-.52 4.013 4.013 0 0 0 3.459.292c1.163-.301 1.198-1.247.834-2.258a.495.495 0 0 1 .502-.678 4.102 4.102 0 0 0 2.164-.505c1.677-.772 1.869-1.878 1.655-2.776a.495.495 0 0 1 .63-.566 2.15 2.15 0 0 0 1.327-.096c3.005-1.157 2.319-1.228 1.505-5.157-.398-1.923-6.242-9.606-6.603-10.079z"
              data-id="F_16_L"/>
        <path data-name="F 15 L"
              d="M204.216 771.603l-.069 1.188a85.543 85.543 0 0 0 28.374-.313l.023-.56 1.051-22.564c.213-9.676 4.16-31.852 5.823-37.69 1.664-5.835 5.324-53.863 5.99-66.204.328-6.085-.2-16.505-.827-26.329-8.054 4.073-16.553 6.722-25.597 6.833-.383.005-.76.007-1.135.007a84.415 84.415 0 0 1-20.457-2.427c.118 13.48-.476 35.428-.565 50.14-.125 20.638 9.233 38.523 9.233 50.28 0 10.78-.839 29.966-1.844 47.639z"
              data-id="F_15_L"/>
        <path data-name="F 14 L"
              d="M197.328 619.39a79.395 79.395 0 0 0 21.607 2.574c8.901-.109 17.334-2.922 25.362-7.193-.029-.42-.06-.851-.093-1.288-.593-7.826-1.057-14.578-1.125-17.385-.167-6.838.332-18.845.998-21.847.147-.665.588-3.235 1.234-7.158.048-.288.097-.593.147-.904-9.22 7.699-19.403 13.659-31.114 15.44a88.897 88.897 0 0 1-13.354 1.028 78.565 78.565 0 0 1-8.145-.415l.021.275c.11 1.43.211 2.689.3 3.742 1.332 15.675 2.413 20.386 3.66 26.14a68.357 68.357 0 0 1 .497 6.9l.005.09z"
              data-id="F_14_L"/>
        <path data-name="F 13 L"
              d="M213.743 577.675c12.331-1.877 23.016-8.884 32.702-17.653 2.452-15.54 6.202-40.784 8.513-61.065 3.125-27.419-.525-75.23-1.278-84.66-.032-.396-.05-.996-.063-1.71-9.976 5.528-23.054 9.02-31.869 11.373-.936.25-1.828.488-2.667.716-2.213.599-4.15 1.024-5.858 1.398-7.39 1.621-10.155 2.227-14.806 12.522-4.823 10.675-10.21 13.06-13.714 13.548.379 12.356 1.446 36.457 2.308 46.396.87 10.026 4.002 57.253 5.53 79.626a80.68 80.68 0 0 0 21.202-.491z"
              data-id="F_13_L"/>
        <path data-name="F 12 L"
              d="M359.122 462.736c-.124-1.896-11.852-18.06-14.935-22.812-3.081-4.753-6.4-5.229-10.431-8.556s-4.403-3.541-6.16-8.706c-.358-1.052-.71-2.415-1.075-4.026l-.028-.123a83.982 83.982 0 0 1-26.944 8.616l.028.126c1.07 5.701.43 10.194 1.939 19.164 2.49 14.799 4.108 16.793 8.454 24.397s4.263 13.25 6.087 17.51c1.172 2.736 2.188 5.544 4.781 5.544 2.768 0 2.49-3.327 2.49-3.327l1.264 5.862s2.321 8.12 5.532 8.12c2.482 0 2.172-3.858 1.891-5.5 1.777 8.525 6.249 6.212 6.249 6.212 3.487 0-.988-14.931.711-10.298s3.714 4.595 4.544 4.595c.845 0 3.517-2.574 3.517-7.803 0-5.227-3.084-17.588-3.558-19.726s-3.082-19.725-1.422-16.398c1.659 3.327 8.294 9.98 9.242 10.932a6.084 6.084 0 0 0 6.639 1.188c1.966-.955 1.338-2.64 1.185-4.99z"
              data-id="F_12_L"/>
        <path data-name="F 10 L"
              d="M222.032 419.744c9.194-2.461 22.382-6.13 31.54-11.74-.022-1.847-.065-3.621-.183-4.66-1.03-9.079-2.76-10.58-6.958-33.519-17.618 5.203-39.455 8.107-62.578 8.29v31.294c15.597.301 29.67 4.104 38.18 10.335z"
              data-id="F_10_L"/>
        <path data-name="F 09 L"
              d="M321.44 385.174l-.009-.065a83.792 83.792 0 0 1-33.384 15.07c2.52 5.345 4.8 10.04 6.524 13.477a65.033 65.033 0 0 1 4.001 9.585 79.742 79.742 0 0 0 27.107-8.807c-1.301-7.467-2.756-18.028-4.24-29.26z"
              data-id="F_09_L"/>
        <path data-name="F 08 L"
              d="M183.853 374.693c22.717-.19 44.833-3.167 62.126-8.314-.038-.493-.064-1-.064-1.47l.109-50.83c-17.407-5.224-39.112-8.14-62.17-8.318z"
              data-id="F_08_L"/>
        <path data-name="F 07 L"
              d="M320.756 380.001c-.778-4.608-1.244-9.311-1.894-13.872-3.245-22.764-6.738-36.772-8.985-43.276-.597-1.73-1.766-4.488-3.166-7.645-.064-.146-.142-.32-.227-.508-14.637 11.144-32.571 15.525-41.802 17.13.27 4.335.55 8.931 1.273 13.413 1.445 8.962 11.806 32.665 20.24 50.98l.1.218a79.45 79.45 0 0 0 34.541-15.932c-.027-.18-.054-.355-.08-.508z"
              data-id="F_07_L"/>
        <path data-name="F 06 L"
              d="M296.401 293.336a54.297 54.297 0 0 1-1.627-6.335c-9.707 1.447-23.755 4.844-35.838 12.798 1.586 5.393 3.128 10.74 4.024 13.548 1.036 3.244 1.264 8.38 1.526 14.294l.007.162c9.168-1.64 26.468-6.001 40.291-16.848a788.482 788.482 0 0 0-8.383-17.62z"
              data-id="F_06_L"/>
        <path data-name="F 05 L"
              d="M293.788 282.587c-1.98-8.926-4.63-21.036-6.62-27.024-3.245-9.756-2.07-38.57-2.702-56.044a80.268 80.268 0 0 0-.747-9.357c-9.87 4.055-24.193 12.108-31.882 26.522 1.335 19.137.624 44.403.84 48.46.478 8.94 1.798 14.684 2.297 18.936a106.844 106.844 0 0 0 2.538 10.651l.283 1.048c12.32-7.785 26.292-11.197 36.104-12.689l-.111-.503z"
              data-id="F_05_L"/>
        <path data-name="F 04 L"
              d="M208.957 163.516c1.842.918 4.19 1.948 6.807 3.096l.982.43c1.434.664 2.908 1.321 4.407 1.987q.747.332 1.497.67c5.83 2.714 11.898 5.914 15.5 9.347 3.068 2.925 5.249 7.8 6.629 15.04.364 3.415.577 5.187 1.663 26.764.098 7.685.056 77.046-.287 88.297l-.046 1.387c-17.57-5.148-39.27-8.018-62.256-8.194V170.322a53.725 53.725 0 0 0 25.104-6.806z"
              data-id="F_04_L"/>
        <path data-name="F 03 L"
              d="M227.097 137.793c15.081 6.267 40.677 9.205 51.65 34.877a70.925 70.925 0 0 1 4.25 13.408c-10.577 4.239-23.462 11.93-31.74 23.88-.453-2.66-.875-4.824-1.238-6.659-1.15-13.697-4-22.112-8.905-26.943a11.074 11.074 0 0 0-1.057-.972c-5.71-4.985-15.079-9.099-22.686-12.435-2.98-1.307-5.595-2.455-7.401-3.407a24.138 24.138 0 0 1-2.429-1.813c-6.172-5.358-9.87-23.955-9.875-36.018 7.704 4.658 21.55 12.806 29.43 16.082z"
              data-id="F_03_L"/>
        <path data-name="F 01 L"
              d="M200.846 111.225c8.827-10.904 9.103-15.197 9.697-17.205 1.602-5.416 2.875-14.228 6.085-15.658 3.21-1.43 5.03-6.786 6.064-8.607.97-1.71 5.036-13.471.35-13.471a4.222 4.222 0 0 0-2.85 1.051.495.495 0 0 1-.81-.457 87.193 87.193 0 0 0 .893-13.758c0-30.192-28.56-33.938-36.422-34.398V122.01c4.793-.536 9.358-2.886 13.764-7.09a60.105 60.105 0 0 0 3.229-3.695z"
              data-id="F_01_L"/>
        <path data-name="F 16 R"
              d="M146.66 777.778a93.15 93.15 0 0 1-15.34-1.259 43.115 43.115 0 0 1-.544 9.023 64.171 64.171 0 0 1-4.99 14.676c-1.332 2.335-9.484 11.34-9.484 11.34l-2.805 2.811a.44.44 0 0 0-.04.046c-.361.473-6.206 8.156-6.604 10.079-.813 3.929-1.5 4 1.505 5.157a2.15 2.15 0 0 0 1.326.096.495.495 0 0 1 .631.566c-.214.898-.022 2.004 1.655 2.776a4.102 4.102 0 0 0 2.164.505.495.495 0 0 1 .502.678c-.364 1.011-.33 1.957.834 2.258a4.013 4.013 0 0 0 3.459-.292.498.498 0 0 1 .748.52 1.513 1.513 0 0 0 1.034 2.024c3.642 1.128 5.725-.16 7.736-1.75 1.316-1.042-1.75 2.839 4.991 4.126 5.248 1.002 11.48-3.127 14.725-9.13 3.244-6.004 3.993-17.386 9.108-26.14 5.079-8.69 3.641-10.613 2.521-29.112a82.798 82.798 0 0 1-13.132 1.002z"
              data-id="F_16_R"/>
        <path data-name="F 15 R"
              d="M166.314 623.544a84.415 84.415 0 0 1-20.457 2.427c-.376 0-.752-.002-1.134-.007-9.045-.111-17.544-2.76-25.597-6.833-.628 9.824-1.156 20.244-.827 26.329.665 12.34 4.325 60.369 5.989 66.205 1.664 5.837 5.61 28.013 5.823 37.69l1.052 22.563.022.56a85.543 85.543 0 0 0 28.374.313l-.069-1.188c-1.005-17.673-1.844-36.86-1.844-47.638 0-11.758 9.358-29.643 9.234-50.28-.09-14.713-.683-36.66-.566-50.141z"
              data-id="F_15_R"/>
        <path data-name="F 14 R"
              d="M149.362 581.63c-11.711-1.782-21.894-7.742-31.114-15.44l.147.903c.646 3.923 1.087 6.493 1.234 7.158.666 3.002 1.165 15.009.999 21.847-.069 2.807-.533 9.56-1.126 17.385-.033.437-.064.868-.093 1.288 8.028 4.271 16.461 7.084 25.362 7.193a79.395 79.395 0 0 0 21.608-2.575l.004-.09a68.357 68.357 0 0 1 .498-6.9c1.246-5.754 2.328-10.465 3.659-26.14.089-1.053.19-2.311.3-3.742l.022-.275a78.565 78.565 0 0 1-8.146.415 88.897 88.897 0 0 1-13.354-1.027z"
              data-id="F_14_R"/>
        <path data-name="F 13 R"
              d="M165.29 438.596c-4.652-10.295-7.417-10.9-14.807-12.522-1.708-.374-3.645-.8-5.858-1.398-.839-.228-1.731-.466-2.667-.716-8.815-2.353-21.893-5.845-31.868-11.373a31.352 31.352 0 0 1-.064 1.71c-.753 9.43-4.403 57.241-1.278 84.66 2.311 20.281 6.061 45.525 8.513 61.065 9.687 8.769 20.37 15.776 32.702 17.653a80.68 80.68 0 0 0 21.203.49c1.527-22.372 4.66-69.599 5.53-79.625.862-9.94 1.928-34.04 2.307-46.396-3.503-.489-8.89-2.873-13.714-13.548z"
              data-id="F_13_R"/>
        <path data-name="F 12 R"
              d="M37.186 418.636c-.366 1.611-.718 2.974-1.076 4.026-1.757 5.165-2.13 5.379-6.16 8.706s-7.35 3.803-10.431 8.556c-3.082 4.752-14.811 20.916-14.935 22.812-.153 2.35-.78 4.036 1.186 4.991a6.084 6.084 0 0 0 6.638-1.188c.948-.951 7.583-7.605 9.243-10.932 1.66-3.327-.948 14.26-1.423 16.398s-3.557 14.499-3.557 19.726c0 5.229 2.671 7.803 3.516 7.803.83 0 2.845.04 4.544-4.595s-2.776 10.298.711 10.298c0 0 4.472 2.313 6.249-6.213-.28 1.643-.59 5.5 1.891 5.5 3.211 0 5.532-8.119 5.532-8.119l1.265-5.862s-.279 3.327 2.49 3.327c2.593 0 3.608-2.808 4.78-5.545 1.825-4.26 1.74-9.904 6.087-17.509s5.964-9.598 8.454-24.397c1.51-8.97.87-13.463 1.94-19.164l.028-.126a83.982 83.982 0 0 1-26.945-8.616z"
              data-id="F_12_R"/>
        <path data-name="F 11"
              d="M181.853 413.379c-13.71 0-26.6 2.911-34.978 7.746 1.631.415 3.127.749 4.465 1.042 8.402 1.843 12.338 3.147 17.595 14.782 5.219 11.55 10.382 11.372 12.577 11.296.127-.005.23-.006.341-.008.111.002.214.003.341.008 2.195.076 7.358.254 12.578-11.296 5.256-11.635 9.192-12.94 17.594-14.782 1.34-.294 2.838-.628 4.472-1.044-8.382-4.832-21.307-7.744-34.985-7.744z"
              data-id="F_11"/>
        <path data-name="F 10 R"
              d="M179.853 409.41v-31.296c-23.122-.182-44.96-3.086-62.578-8.289-4.198 22.939-5.927 24.44-6.958 33.519-.118 1.039-.16 2.813-.182 4.66 9.158 5.61 22.347 9.28 31.54 11.74 8.509-6.235 22.55-10.035 38.178-10.335z"
              data-id="F_10_R"/>
        <path data-name="F 09 R"
              d="M42.267 385.174c-1.483 11.232-2.939 21.793-4.24 29.26a79.742 79.742 0 0 0 27.107 8.807 65.034 65.034 0 0 1 4.001-9.585c1.724-3.436 4.004-8.132 6.524-13.478a83.792 83.792 0 0 1-33.384-15.07z"
              data-id="F_09_R"/>
        <path data-name="F 08 R"
              d="M179.853 305.76c-23.059.18-44.763 3.095-62.17 8.318l.109 50.832c0 .47-.027.976-.065 1.47 17.293 5.146 39.41 8.123 62.126 8.313z"
              data-id="F_08_R"/>
        <path data-name="F 07 R"
              d="M56.995 315.208c-1.4 3.157-2.568 5.914-3.166 7.645-2.246 6.504-5.74 20.512-8.984 43.276-.65 4.561-1.117 9.264-1.895 13.872-.026.153-.053.328-.08.508a79.45 79.45 0 0 0 34.541 15.932l.1-.217c8.435-18.316 18.795-42.019 20.24-50.981.723-4.482 1.003-9.078 1.273-13.412-9.23-1.606-27.164-5.987-41.802-17.131l-.227.508z"
              data-id="F_07_R"/>
        <path data-name="F 06 R"
              d="M67.305 293.336a788.37 788.37 0 0 0-8.383 17.619c13.823 10.847 31.123 15.209 40.291 16.848l.007-.162c.262-5.914.49-11.05 1.526-14.293.897-2.809 2.439-8.156 4.024-13.548-12.083-7.955-26.13-11.352-35.838-12.8a54.3 54.3 0 0 1-1.627 6.336z"
              data-id="F_06_R"/>
        <path data-name="F 05 R"
              d="M108.732 284.08c.5-4.252 1.82-9.995 2.297-18.937.217-4.056-.495-29.322.84-48.459-7.689-14.414-22.011-22.467-31.882-26.522a80.268 80.268 0 0 0-.747 9.357c-.632 17.474.543 46.289-2.701 56.044-1.991 5.988-4.642 18.098-6.62 27.024l-.112.504c9.813 1.49 23.784 4.903 36.104 12.689l.284-1.048a106.844 106.844 0 0 0 2.537-10.652z"
              data-id="F_05_R"/>
        <path data-name="F 04 R"
              d="M154.75 163.516c-1.843.918-4.19 1.948-6.808 3.096l-.982.43c-1.434.664-2.908 1.321-4.406 1.987q-.747.332-1.498.67c-5.83 2.714-11.897 5.914-15.5 9.347-3.068 2.925-5.248 7.8-6.628 15.04-.365 3.415-.578 5.187-1.664 26.764-.097 7.685-.056 77.046.288 88.297.016.536.031.986.045 1.387 17.57-5.148 39.27-8.018 62.256-8.194V170.322a53.725 53.725 0 0 1-25.104-6.806z"
              data-id="F_04_R"/>
        <path data-name="F 03 R"
              d="M136.61 137.793c-15.082 6.267-40.678 9.205-51.651 34.877a70.924 70.924 0 0 0-4.249 13.408c10.577 4.239 23.461 11.93 31.74 23.88.452-2.66.874-4.824 1.237-6.659 1.15-13.697 4-22.112 8.905-26.943a11.073 11.073 0 0 1 1.057-.972c5.71-4.985 15.08-9.099 22.686-12.435 2.98-1.307 5.596-2.455 7.402-3.407a24.138 24.138 0 0 0 2.428-1.813c6.172-5.358 9.87-23.956 9.876-36.018-7.705 4.658-21.55 12.806-29.431 16.082z"
              data-id="F_03_R"/>
        <path data-name="F 02"
              d="M181.853 166.355a51.04 51.04 0 0 0 23.953-5.638c-.17-.135-.347-.266-.507-.405-7.635-6.627-10.964-26.719-11.045-38.444a22.686 22.686 0 0 1-24.802 0c-.08 11.725-3.41 31.817-11.045 38.444-.16.14-.338.27-.508.405a51.018 51.018 0 0 0 23.954 5.638z"
              data-id="F_02"/>
        <path data-name="F 01 R"
              d="M147.078 78.362c3.21 1.43 4.483 10.242 6.086 15.658.594 2.008.87 6.301 9.697 17.205a60.11 60.11 0 0 0 3.228 3.695c4.406 4.204 8.971 6.554 13.764 7.09V8.722c-7.862.46-36.421 4.206-36.421 34.398a87.193 87.193 0 0 0 .893 13.758.495.495 0 0 1-.81.457 4.223 4.223 0 0 0-2.851-1.051c-4.686 0-.62 11.761.35 13.47 1.034 1.822 2.854 7.178 6.064 8.608z"
              data-id="F_01_R"/>
    </g>
</svg>