<svg width="20" height="20" viewBox="0 0 20 20" fill="none" xmlns="http://www.w3.org/2000/svg">
<path d="M10 0.25C4.6375 0.25 0.25 4.6375 0.25 10C0.25 15.3625 4.6375 19.75 10 19.75C15.3625 19.75 19.75 15.3625 19.75 10C19.75 4.6375 15.3625 0.25 10 0.25ZM10 3.175C11.6078 3.175 12.925 4.49219 12.925 6.1C12.925 7.70781 11.6078 9.025 10 9.025C8.39219 9.025 7.075 7.70781 7.075 6.1C7.075 4.49219 8.39219 3.175 10 3.175ZM10 17.2562C7.5625 17.2562 5.41562 15.9906 4.15 14.1344C4.19687 12.1844 8.05 11.1109 10 11.1109C11.95 11.1109 15.8031 12.1844 15.85 14.1344C14.5844 15.9859 12.4375 17.2562 10 17.2562Z" fill="#81B5FF"/>
</svg>
