<svg width="30" height="24" viewBox="0 0 30 24" fill="none" xmlns="http://www.w3.org/2000/svg">
<path d="M15 17.9766C17.481 17.9766 19.4922 15.9653 19.4922 13.4844C19.4922 11.0034 17.481 8.99219 15 8.99219C12.519 8.99219 10.5078 11.0034 10.5078 13.4844C10.5078 15.9653 12.519 17.9766 15 17.9766Z" fill="white"/>
<path d="M27.6172 4.5H23.3594C23 4.5 22.6641 4.34375 22.4219 4.07813C20.2031 1.59375 19.3672 0.75 18.4609 0.75H11.7812C10.8672 0.75 9.96875 1.59375 7.74219 4.08594C7.50781 4.35156 7.16406 4.5 6.8125 4.5H6.49219V3.875C6.49219 3.53125 6.21094 3.25 5.86719 3.25H3.83594C3.49219 3.25 3.21094 3.53125 3.21094 3.875V4.5H2.625C1.24219 4.5 0 5.53125 0 6.89844V20.6484C0 22.0156 1.24219 23.25 2.61719 23.25H27.6172C28.9922 23.25 30 22.0156 30 20.6484V6.89844C30 5.53125 28.9922 4.5 27.6172 4.5ZM15.3125 20.1562C11.3828 20.3359 8.14844 17.1016 8.32812 13.1719C8.48438 9.74219 11.2578 6.96875 14.6875 6.8125C18.6172 6.63281 21.8516 9.86719 21.6719 13.7969C21.5156 17.2266 18.7422 20 15.3125 20.1562ZM22.5 9.03125C21.9375 9.03125 21.4844 8.57812 21.4844 8.01562C21.4844 7.45312 21.9375 7 22.5 7C23.0625 7 23.5156 7.45312 23.5156 8.01562C23.5156 8.57812 23.0625 9.03125 22.5 9.03125Z" fill="white"/>
</svg>
