<svg width="18" height="14" viewBox="0 0 18 14" fill="none" xmlns="http://www.w3.org/2000/svg">
<path d="M17.3286 2.07031L15.9536 0.65625C15.8989 0.59375 15.813 0.5625 15.7349 0.5625C15.6489 0.5625 15.5708 0.59375 15.5161 0.65625L5.98486 10.2578L2.51611 6.78906C2.45361 6.72656 2.37549 6.69531 2.29736 6.69531C2.21924 6.69531 2.14111 6.72656 2.07861 6.78906L0.687988 8.17969C0.562988 8.30469 0.562988 8.5 0.687988 8.625L5.06299 13C5.34424 13.2812 5.68799 13.4453 5.97705 13.4453C6.39111 13.4453 6.75049 13.1406 6.8833 13.0156H6.89111L17.3364 2.51562C17.4458 2.38281 17.4458 2.1875 17.3286 2.07031Z" fill="#247EE5"/>
</svg>
