<svg width="192" height="146" viewBox="0 0 192 146" fill="none" xmlns="http://www.w3.org/2000/svg">
<g clip-path="url(#clip0)">
<path d="M2 3.5C2.82843 3.5 3.5 2.82843 3.5 2C3.5 1.17157 2.82843 0.5 2 0.5C1.17157 0.5 0.5 1.17157 0.5 2C0.5 2.82843 1.17157 3.5 2 3.5Z" fill="#247EE5"/>
<path d="M2 26.5C2.82843 26.5 3.5 25.8284 3.5 25C3.5 24.1716 2.82843 23.5 2 23.5C1.17157 23.5 0.5 24.1716 0.5 25C0.5 25.8284 1.17157 26.5 2 26.5Z" fill="#247EE5"/>
<path d="M2 49.5C2.82843 49.5 3.5 48.8284 3.5 48C3.5 47.1716 2.82843 46.5 2 46.5C1.17157 46.5 0.5 47.1716 0.5 48C0.5 48.8284 1.17157 49.5 2 49.5Z" fill="#247EE5"/>
<path d="M2 72.5C2.82843 72.5 3.5 71.8284 3.5 71C3.5 70.1716 2.82843 69.5 2 69.5C1.17157 69.5 0.5 70.1716 0.5 71C0.5 71.8284 1.17157 72.5 2 72.5Z" fill="#247EE5"/>
<path d="M2 95.5C2.82843 95.5 3.5 94.8284 3.5 94C3.5 93.1716 2.82843 92.5 2 92.5C1.17157 92.5 0.5 93.1716 0.5 94C0.5 94.8284 1.17157 95.5 2 95.5Z" fill="#247EE5"/>
<path d="M2 118.5C2.82843 118.5 3.5 117.828 3.5 117C3.5 116.172 2.82843 115.5 2 115.5C1.17157 115.5 0.5 116.172 0.5 117C0.5 117.828 1.17157 118.5 2 118.5Z" fill="#247EE5"/>
<path d="M2 141.5C2.82843 141.5 3.5 140.828 3.5 140C3.5 139.172 2.82843 138.5 2 138.5C1.17157 138.5 0.5 139.172 0.5 140C0.5 140.828 1.17157 141.5 2 141.5Z" fill="#247EE5"/>
<path d="M25 3.5C25.8284 3.5 26.5 2.82843 26.5 2C26.5 1.17157 25.8284 0.5 25 0.5C24.1716 0.5 23.5 1.17157 23.5 2C23.5 2.82843 24.1716 3.5 25 3.5Z" fill="#247EE5"/>
<path d="M25 26.5C25.8284 26.5 26.5 25.8284 26.5 25C26.5 24.1716 25.8284 23.5 25 23.5C24.1716 23.5 23.5 24.1716 23.5 25C23.5 25.8284 24.1716 26.5 25 26.5Z" fill="#247EE5"/>
<path d="M25 49.5C25.8284 49.5 26.5 48.8284 26.5 48C26.5 47.1716 25.8284 46.5 25 46.5C24.1716 46.5 23.5 47.1716 23.5 48C23.5 48.8284 24.1716 49.5 25 49.5Z" fill="#247EE5"/>
<path d="M25 72.5C25.8284 72.5 26.5 71.8284 26.5 71C26.5 70.1716 25.8284 69.5 25 69.5C24.1716 69.5 23.5 70.1716 23.5 71C23.5 71.8284 24.1716 72.5 25 72.5Z" fill="#247EE5"/>
<path d="M25 95.5C25.8284 95.5 26.5 94.8284 26.5 94C26.5 93.1716 25.8284 92.5 25 92.5C24.1716 92.5 23.5 93.1716 23.5 94C23.5 94.8284 24.1716 95.5 25 95.5Z" fill="#247EE5"/>
<path d="M25 118.5C25.8284 118.5 26.5 117.828 26.5 117C26.5 116.172 25.8284 115.5 25 115.5C24.1716 115.5 23.5 116.172 23.5 117C23.5 117.828 24.1716 118.5 25 118.5Z" fill="#247EE5"/>
<path d="M25 141.5C25.8284 141.5 26.5 140.828 26.5 140C26.5 139.172 25.8284 138.5 25 138.5C24.1716 138.5 23.5 139.172 23.5 140C23.5 140.828 24.1716 141.5 25 141.5Z" fill="#247EE5"/>
<path d="M48 3.5C48.8284 3.5 49.5 2.82843 49.5 2C49.5 1.17157 48.8284 0.5 48 0.5C47.1716 0.5 46.5 1.17157 46.5 2C46.5 2.82843 47.1716 3.5 48 3.5Z" fill="#247EE5"/>
<path d="M48 26.5C48.8284 26.5 49.5 25.8284 49.5 25C49.5 24.1716 48.8284 23.5 48 23.5C47.1716 23.5 46.5 24.1716 46.5 25C46.5 25.8284 47.1716 26.5 48 26.5Z" fill="#247EE5"/>
<path d="M48 49.5C48.8284 49.5 49.5 48.8284 49.5 48C49.5 47.1716 48.8284 46.5 48 46.5C47.1716 46.5 46.5 47.1716 46.5 48C46.5 48.8284 47.1716 49.5 48 49.5Z" fill="#247EE5"/>
<path d="M48 72.5C48.8284 72.5 49.5 71.8284 49.5 71C49.5 70.1716 48.8284 69.5 48 69.5C47.1716 69.5 46.5 70.1716 46.5 71C46.5 71.8284 47.1716 72.5 48 72.5Z" fill="#247EE5"/>
<path d="M48 95.5C48.8284 95.5 49.5 94.8284 49.5 94C49.5 93.1716 48.8284 92.5 48 92.5C47.1716 92.5 46.5 93.1716 46.5 94C46.5 94.8284 47.1716 95.5 48 95.5Z" fill="#247EE5"/>
<path d="M48 118.5C48.8284 118.5 49.5 117.828 49.5 117C49.5 116.172 48.8284 115.5 48 115.5C47.1716 115.5 46.5 116.172 46.5 117C46.5 117.828 47.1716 118.5 48 118.5Z" fill="#247EE5"/>
<path d="M48 141.5C48.8284 141.5 49.5 140.828 49.5 140C49.5 139.172 48.8284 138.5 48 138.5C47.1716 138.5 46.5 139.172 46.5 140C46.5 140.828 47.1716 141.5 48 141.5Z" fill="#247EE5"/>
<path d="M71 3.5C71.8284 3.5 72.5 2.82843 72.5 2C72.5 1.17157 71.8284 0.5 71 0.5C70.1716 0.5 69.5 1.17157 69.5 2C69.5 2.82843 70.1716 3.5 71 3.5Z" fill="#247EE5"/>
<path d="M71 26.5C71.8284 26.5 72.5 25.8284 72.5 25C72.5 24.1716 71.8284 23.5 71 23.5C70.1716 23.5 69.5 24.1716 69.5 25C69.5 25.8284 70.1716 26.5 71 26.5Z" fill="#247EE5"/>
<path d="M71 49.5C71.8284 49.5 72.5 48.8284 72.5 48C72.5 47.1716 71.8284 46.5 71 46.5C70.1716 46.5 69.5 47.1716 69.5 48C69.5 48.8284 70.1716 49.5 71 49.5Z" fill="#247EE5"/>
<path d="M71 72.5C71.8284 72.5 72.5 71.8284 72.5 71C72.5 70.1716 71.8284 69.5 71 69.5C70.1716 69.5 69.5 70.1716 69.5 71C69.5 71.8284 70.1716 72.5 71 72.5Z" fill="#247EE5"/>
<path d="M71 95.5C71.8284 95.5 72.5 94.8284 72.5 94C72.5 93.1716 71.8284 92.5 71 92.5C70.1716 92.5 69.5 93.1716 69.5 94C69.5 94.8284 70.1716 95.5 71 95.5Z" fill="#247EE5"/>
<path d="M71 118.5C71.8284 118.5 72.5 117.828 72.5 117C72.5 116.172 71.8284 115.5 71 115.5C70.1716 115.5 69.5 116.172 69.5 117C69.5 117.828 70.1716 118.5 71 118.5Z" fill="#247EE5"/>
<path d="M71 141.5C71.8284 141.5 72.5 140.828 72.5 140C72.5 139.172 71.8284 138.5 71 138.5C70.1716 138.5 69.5 139.172 69.5 140C69.5 140.828 70.1716 141.5 71 141.5Z" fill="#247EE5"/>
<path d="M94 3.5C94.8284 3.5 95.5 2.82843 95.5 2C95.5 1.17157 94.8284 0.5 94 0.5C93.1716 0.5 92.5 1.17157 92.5 2C92.5 2.82843 93.1716 3.5 94 3.5Z" fill="#247EE5"/>
<path d="M94 26.5C94.8284 26.5 95.5 25.8284 95.5 25C95.5 24.1716 94.8284 23.5 94 23.5C93.1716 23.5 92.5 24.1716 92.5 25C92.5 25.8284 93.1716 26.5 94 26.5Z" fill="#247EE5"/>
<path d="M94 49.5C94.8284 49.5 95.5 48.8284 95.5 48C95.5 47.1716 94.8284 46.5 94 46.5C93.1716 46.5 92.5 47.1716 92.5 48C92.5 48.8284 93.1716 49.5 94 49.5Z" fill="#247EE5"/>
<path d="M94 72.5C94.8284 72.5 95.5 71.8284 95.5 71C95.5 70.1716 94.8284 69.5 94 69.5C93.1716 69.5 92.5 70.1716 92.5 71C92.5 71.8284 93.1716 72.5 94 72.5Z" fill="#247EE5"/>
<path d="M94 95.5C94.8284 95.5 95.5 94.8284 95.5 94C95.5 93.1716 94.8284 92.5 94 92.5C93.1716 92.5 92.5 93.1716 92.5 94C92.5 94.8284 93.1716 95.5 94 95.5Z" fill="#247EE5"/>
<path d="M94 118.5C94.8284 118.5 95.5 117.828 95.5 117C95.5 116.172 94.8284 115.5 94 115.5C93.1716 115.5 92.5 116.172 92.5 117C92.5 117.828 93.1716 118.5 94 118.5Z" fill="#247EE5"/>
<path d="M94 141.5C94.8284 141.5 95.5 140.828 95.5 140C95.5 139.172 94.8284 138.5 94 138.5C93.1716 138.5 92.5 139.172 92.5 140C92.5 140.828 93.1716 141.5 94 141.5Z" fill="#247EE5"/>
<path d="M117 3.5C117.828 3.5 118.5 2.82843 118.5 2C118.5 1.17157 117.828 0.5 117 0.5C116.172 0.5 115.5 1.17157 115.5 2C115.5 2.82843 116.172 3.5 117 3.5Z" fill="#247EE5"/>
<path d="M117 26.5C117.828 26.5 118.5 25.8284 118.5 25C118.5 24.1716 117.828 23.5 117 23.5C116.172 23.5 115.5 24.1716 115.5 25C115.5 25.8284 116.172 26.5 117 26.5Z" fill="#247EE5"/>
<path d="M117 49.5C117.828 49.5 118.5 48.8284 118.5 48C118.5 47.1716 117.828 46.5 117 46.5C116.172 46.5 115.5 47.1716 115.5 48C115.5 48.8284 116.172 49.5 117 49.5Z" fill="#247EE5"/>
<path d="M117 72.5C117.828 72.5 118.5 71.8284 118.5 71C118.5 70.1716 117.828 69.5 117 69.5C116.172 69.5 115.5 70.1716 115.5 71C115.5 71.8284 116.172 72.5 117 72.5Z" fill="#247EE5"/>
<path d="M117 95.5C117.828 95.5 118.5 94.8284 118.5 94C118.5 93.1716 117.828 92.5 117 92.5C116.172 92.5 115.5 93.1716 115.5 94C115.5 94.8284 116.172 95.5 117 95.5Z" fill="#247EE5"/>
<path d="M117 118.5C117.828 118.5 118.5 117.828 118.5 117C118.5 116.172 117.828 115.5 117 115.5C116.172 115.5 115.5 116.172 115.5 117C115.5 117.828 116.172 118.5 117 118.5Z" fill="#247EE5"/>
<path d="M117 141.5C117.828 141.5 118.5 140.828 118.5 140C118.5 139.172 117.828 138.5 117 138.5C116.172 138.5 115.5 139.172 115.5 140C115.5 140.828 116.172 141.5 117 141.5Z" fill="#247EE5"/>
<path d="M140 3.5C140.828 3.5 141.5 2.82843 141.5 2C141.5 1.17157 140.828 0.5 140 0.5C139.172 0.5 138.5 1.17157 138.5 2C138.5 2.82843 139.172 3.5 140 3.5Z" fill="#247EE5"/>
<path d="M140 26.5C140.828 26.5 141.5 25.8284 141.5 25C141.5 24.1716 140.828 23.5 140 23.5C139.172 23.5 138.5 24.1716 138.5 25C138.5 25.8284 139.172 26.5 140 26.5Z" fill="#247EE5"/>
<path d="M140 49.5C140.828 49.5 141.5 48.8284 141.5 48C141.5 47.1716 140.828 46.5 140 46.5C139.172 46.5 138.5 47.1716 138.5 48C138.5 48.8284 139.172 49.5 140 49.5Z" fill="#247EE5"/>
<path d="M140 72.5C140.828 72.5 141.5 71.8284 141.5 71C141.5 70.1716 140.828 69.5 140 69.5C139.172 69.5 138.5 70.1716 138.5 71C138.5 71.8284 139.172 72.5 140 72.5Z" fill="#247EE5"/>
<path d="M140 95.5C140.828 95.5 141.5 94.8284 141.5 94C141.5 93.1716 140.828 92.5 140 92.5C139.172 92.5 138.5 93.1716 138.5 94C138.5 94.8284 139.172 95.5 140 95.5Z" fill="#247EE5"/>
<path d="M140 118.5C140.828 118.5 141.5 117.828 141.5 117C141.5 116.172 140.828 115.5 140 115.5C139.172 115.5 138.5 116.172 138.5 117C138.5 117.828 139.172 118.5 140 118.5Z" fill="#247EE5"/>
<path d="M140 141.5C140.828 141.5 141.5 140.828 141.5 140C141.5 139.172 140.828 138.5 140 138.5C139.172 138.5 138.5 139.172 138.5 140C138.5 140.828 139.172 141.5 140 141.5Z" fill="#247EE5"/>
<path d="M163 3.5C163.828 3.5 164.5 2.82843 164.5 2C164.5 1.17157 163.828 0.5 163 0.5C162.172 0.5 161.5 1.17157 161.5 2C161.5 2.82843 162.172 3.5 163 3.5Z" fill="#247EE5"/>
<path d="M163 26.5C163.828 26.5 164.5 25.8284 164.5 25C164.5 24.1716 163.828 23.5 163 23.5C162.172 23.5 161.5 24.1716 161.5 25C161.5 25.8284 162.172 26.5 163 26.5Z" fill="#247EE5"/>
<path d="M163 49.5C163.828 49.5 164.5 48.8284 164.5 48C164.5 47.1716 163.828 46.5 163 46.5C162.172 46.5 161.5 47.1716 161.5 48C161.5 48.8284 162.172 49.5 163 49.5Z" fill="#247EE5"/>
<path d="M163 72.5C163.828 72.5 164.5 71.8284 164.5 71C164.5 70.1716 163.828 69.5 163 69.5C162.172 69.5 161.5 70.1716 161.5 71C161.5 71.8284 162.172 72.5 163 72.5Z" fill="#247EE5"/>
<path d="M163 95.5C163.828 95.5 164.5 94.8284 164.5 94C164.5 93.1716 163.828 92.5 163 92.5C162.172 92.5 161.5 93.1716 161.5 94C161.5 94.8284 162.172 95.5 163 95.5Z" fill="#247EE5"/>
<path d="M163 118.5C163.828 118.5 164.5 117.828 164.5 117C164.5 116.172 163.828 115.5 163 115.5C162.172 115.5 161.5 116.172 161.5 117C161.5 117.828 162.172 118.5 163 118.5Z" fill="#247EE5"/>
<path d="M163 141.5C163.828 141.5 164.5 140.828 164.5 140C164.5 139.172 163.828 138.5 163 138.5C162.172 138.5 161.5 139.172 161.5 140C161.5 140.828 162.172 141.5 163 141.5Z" fill="#247EE5"/>
<path d="M186 3.5C186.828 3.5 187.5 2.82843 187.5 2C187.5 1.17157 186.828 0.5 186 0.5C185.172 0.5 184.5 1.17157 184.5 2C184.5 2.82843 185.172 3.5 186 3.5Z" fill="#247EE5"/>
<path d="M186 26.5C186.828 26.5 187.5 25.8284 187.5 25C187.5 24.1716 186.828 23.5 186 23.5C185.172 23.5 184.5 24.1716 184.5 25C184.5 25.8284 185.172 26.5 186 26.5Z" fill="#247EE5"/>
<path d="M186 49.5C186.828 49.5 187.5 48.8284 187.5 48C187.5 47.1716 186.828 46.5 186 46.5C185.172 46.5 184.5 47.1716 184.5 48C184.5 48.8284 185.172 49.5 186 49.5Z" fill="#247EE5"/>
<path d="M186 72.5C186.828 72.5 187.5 71.8284 187.5 71C187.5 70.1716 186.828 69.5 186 69.5C185.172 69.5 184.5 70.1716 184.5 71C184.5 71.8284 185.172 72.5 186 72.5Z" fill="#247EE5"/>
<path d="M186 95.5C186.828 95.5 187.5 94.8284 187.5 94C187.5 93.1716 186.828 92.5 186 92.5C185.172 92.5 184.5 93.1716 184.5 94C184.5 94.8284 185.172 95.5 186 95.5Z" fill="#247EE5"/>
<path d="M186 118.5C186.828 118.5 187.5 117.828 187.5 117C187.5 116.172 186.828 115.5 186 115.5C185.172 115.5 184.5 116.172 184.5 117C184.5 117.828 185.172 118.5 186 118.5Z" fill="#247EE5"/>
<path d="M186 141.5C186.828 141.5 187.5 140.828 187.5 140C187.5 139.172 186.828 138.5 186 138.5C185.172 138.5 184.5 139.172 184.5 140C184.5 140.828 185.172 141.5 186 141.5Z" fill="#247EE5"/>
</g>
<defs>
<clipPath id="clip0">
<rect width="192" height="146" fill="white"/>
</clipPath>
</defs>
</svg>
