<svg id="small--edit" viewBox="0 0 16 16" xmlns="http://www.w3.org/2000/svg">
    <path fill="#1E5B9A" d="M14.672 4.281c.219.219.328.486.328.802 0 .316-.11.584-.328.802l-8.313 8.313c-.206.207-.495.392-.866.556A2.63 2.63 0 0 1 4.427 15H1v-3.409c0-.34.082-.699.246-1.075.164-.377.35-.669.556-.875l8.313-8.313c.218-.219.486-.328.802-.328.316 0 .583.11.802.328l2.953 2.953zM4.427 13.487c.134 0 .292-.043.474-.128a28.416 28.416 0 0 0-.383-.373 39.897 39.897 0 0 1-.729-.73 31.713 31.713 0 0 0-.82-.81l-.328-.329c-.085.207-.128.365-.128.474v1.13l.766.766h1.148z" />
</svg>