<svg width="22" height="16" viewBox="0 0 22 16" fill="none" xmlns="http://www.w3.org/2000/svg">
<path d="M11 0.921875C6.22812 0.921875 2.16875 3.84688 0.5 8C2.16875 12.1531 6.22812 15.0781 11 15.0781C15.7719 15.0781 19.8312 12.1531 21.5 8C19.8312 3.84688 15.7719 0.921875 11 0.921875ZM11 12.7203C8.375 12.7203 6.22812 10.5969 6.22812 8C6.22812 5.40312 8.375 3.27969 11 3.27969C13.625 3.27969 15.7719 5.40312 15.7719 8C15.7719 10.5969 13.625 12.7203 11 12.7203ZM11 5.16875C9.425 5.16875 8.13594 6.44375 8.13594 8C8.13594 9.55625 9.425 10.8312 11 10.8312C12.575 10.8312 13.8641 9.55625 13.8641 8C13.8641 6.44375 12.575 5.16875 11 5.16875Z" fill="#247EE5"/>
</svg>
