<svg width="40" height="40" viewBox="0 0 40 40" fill="none" xmlns="http://www.w3.org/2000/svg">
<path d="M20 38.3333C28.6918 38.3333 35.9652 32.2835 37.8516 24.1667C35.9652 16.0498 28.6918 10 20 10C11.3082 10 4.03483 16.0498 2.14844 24.1667C4.03483 32.2835 11.3082 38.3333 20 38.3333Z" fill="#CCE4FF"/>
<path d="M25.5677 24.5722C24.0284 25.9223 22.0517 26.6665 20.0001 26.6665C17.9477 26.6665 15.9734 25.9255 14.441 24.5807L13.1886 23.4817L10.9893 25.9866L12.2417 27.0856C14.3824 28.9647 17.1375 29.9998 20.0001 29.9998C22.8618 29.9998 25.6194 28.9614 27.7658 27.0775L29.0182 25.978L26.8193 23.4731L25.5677 24.5722Z" fill="#257EE5"/>
<path d="M20 0C8.97176 0 0 8.97176 0 20C0 31.0282 8.97176 40 20 40C31.0282 40 40 31.0282 40 20C40 8.97176 31.0282 0 20 0ZM20 36.6667C10.8101 36.6667 3.33333 29.1899 3.33333 20C3.33333 10.8101 10.8101 3.33333 20 3.33333C29.1899 3.33333 36.6667 10.8101 36.6667 20C36.6667 29.1899 29.1899 36.6667 20 36.6667Z" fill="#257EE5"/>
<path d="M11.667 15H15.0003V18.3333H11.667V15Z" fill="#257EE5"/>
<path d="M25 15H28.3333V18.3333H25V15Z" fill="#257EE5"/>
</svg>
