<svg width="48" height="48" viewBox="0 0 48 48" fill="none" xmlns="http://www.w3.org/2000/svg">
<circle cx="24" cy="24" r="22.5" fill="white" stroke="white" stroke-width="3"/>
<path d="M37.7652 10.015C34.6844 6.93415 29.6891 6.93415 26.6083 10.015L10.1881 26.4352C7.10723 29.5161 7.10723 34.5113 10.1881 37.5922C13.2689 40.673 18.2642 40.673 21.345 37.5922L37.7652 21.1719C40.8461 18.0911 40.8463 13.096 37.7652 10.015ZM34.5752 13.205C35.0214 13.6513 35.0214 14.3746 34.5752 14.8209C34.1289 15.2671 33.4056 15.2671 32.9593 14.8209C32.5131 14.3746 32.5131 13.6513 32.9593 13.205C33.4056 12.7588 34.1289 12.7588 34.5752 13.205ZM31.4731 16.3071C31.9194 16.7534 31.9191 17.4769 31.4731 17.923C31.0268 18.3692 30.3035 18.3692 29.8573 17.923C29.411 17.4767 29.411 16.7534 29.8573 16.3071C30.3033 15.8611 31.0268 15.8609 31.4731 16.3071ZM29.3647 22.7173C29.6683 23.0209 29.6683 23.5132 29.3647 23.8168L23.9899 29.1916C23.6863 29.4952 23.194 29.4952 22.8904 29.1916L18.5886 24.8899C18.285 24.5862 18.285 24.0939 18.5886 23.7903L23.9634 18.4155C24.267 18.1119 24.7593 18.1119 25.0629 18.4155L29.3647 22.7173ZM31.7205 10.3504C32.1668 10.7966 32.1668 11.52 31.7205 11.9662C31.2743 12.4125 30.5509 12.4125 30.1047 11.9662C29.6584 11.52 29.6584 10.7966 30.1047 10.3504C30.5509 9.90411 31.2743 9.90411 31.7205 10.3504ZM28.6182 13.4527C29.0645 13.8989 29.0645 14.6223 28.6182 15.0685C28.1722 15.5146 27.4486 15.5148 27.0024 15.0685C26.5561 14.6223 26.5563 13.8987 27.0024 13.4527C27.4486 13.0064 28.172 13.0064 28.6182 13.4527ZM10.5234 31.5474C10.0772 31.1012 10.0772 30.3779 10.5234 29.9316C10.9697 29.4853 11.693 29.4853 12.1393 29.9316C12.5855 30.3778 12.5855 31.1012 12.1393 31.5474C11.693 31.9937 10.9697 31.9937 10.5234 31.5474ZM13.6257 28.4451C13.1795 27.9989 13.1795 27.2755 13.6257 26.8293C14.0718 26.3833 14.7953 26.383 15.2416 26.8293C15.6879 27.2755 15.6876 27.9991 15.2416 28.4451C14.7953 28.8914 14.072 28.8914 13.6257 28.4451ZM13.3781 34.4021C12.9319 33.9559 12.9319 33.2325 13.3781 32.7863C13.8244 32.34 14.5477 32.34 14.994 32.7863C15.4402 33.2325 15.4402 33.9559 14.994 34.4021C14.5477 34.8484 13.8244 34.8484 13.3781 34.4021ZM16.4802 31.3C16.034 30.8538 16.0342 30.1302 16.4802 29.6842C16.9265 29.2379 17.6498 29.2379 18.0961 29.6842C18.5423 30.1304 18.5423 30.8538 18.0961 31.3C17.65 31.7461 16.9265 31.7463 16.4802 31.3ZM16.2866 37.3106C15.8404 36.8644 15.8404 36.141 16.2866 35.6948C16.7329 35.2485 17.4562 35.2485 17.9025 35.6948C18.3487 36.141 18.3487 36.8644 17.9025 37.3106C17.4562 37.7569 16.7329 37.7569 16.2866 37.3106ZM19.3887 34.2085C18.9425 33.7623 18.9427 33.0387 19.3887 32.5927C19.835 32.1464 20.5583 32.1464 21.0046 32.5927C21.4508 33.039 21.4508 33.7623 21.0046 34.2085C20.5585 34.6546 19.835 34.6548 19.3887 34.2085ZM32.7656 20.8317C32.3193 20.3855 32.3195 19.6619 32.7656 19.2159C33.2118 18.7696 33.9352 18.7696 34.3814 19.2159C34.8277 19.6621 34.8277 20.3855 34.3814 20.8317C33.9354 21.2778 33.2118 21.278 32.7656 20.8317ZM35.8679 17.7294C35.4216 17.2832 35.4216 16.5598 35.8679 16.1136C36.3141 15.6673 37.0375 15.6673 37.4837 16.1136C37.93 16.5598 37.93 17.2832 37.4837 17.7294C37.0375 18.1757 36.3141 18.1757 35.8679 17.7294Z" fill="#000E29"/>
</svg>
