<svg width="64" height="64" viewBox="0 0 64 64" fill="none" xmlns="http://www.w3.org/2000/svg">
<circle cx="32" cy="32" r="32" fill="url(#paint0_linear)"/>
<path d="M50.354 13.3535C46.2462 9.24569 39.5859 9.24569 35.4781 13.3535L13.5844 35.2471C9.47663 39.3549 9.47663 46.0152 13.5844 50.123C17.6922 54.2308 24.3525 54.2308 28.4603 50.123L50.354 28.2294C54.4618 24.1216 54.462 17.4616 50.354 13.3535ZM46.1006 17.6069C46.6956 18.2019 46.6956 19.1663 46.1006 19.7613C45.5056 20.3563 44.5411 20.3563 43.9461 19.7613C43.3511 19.1663 43.3511 18.2019 43.9461 17.6069C44.5411 17.0119 45.5056 17.0119 46.1006 17.6069ZM41.9645 21.743C42.5595 22.338 42.5592 23.3027 41.9645 23.8975C41.3695 24.4925 40.405 24.4925 39.81 23.8975C39.215 23.3025 39.215 22.338 39.81 21.743C40.4047 21.1483 41.3695 21.148 41.9645 21.743ZM39.1533 30.2899C39.5581 30.6947 39.5581 31.3511 39.1533 31.7559L31.9869 38.9223C31.5821 39.3271 30.9256 39.3271 30.5208 38.9223L24.7851 33.1866C24.3803 32.7818 24.3803 32.1254 24.7851 31.7206L31.9515 24.5542C32.3563 24.1494 33.0128 24.1494 33.4176 24.5542L39.1533 30.2899ZM42.2944 13.8006C42.8894 14.3957 42.8894 15.3601 42.2944 15.9551C41.6994 16.5501 40.7349 16.5501 40.1399 15.9551C39.5449 15.3601 39.5449 14.3957 40.1399 13.8006C40.7349 13.2056 41.6994 13.2056 42.2944 13.8006ZM38.158 17.9371C38.753 18.5321 38.753 19.4965 38.158 20.0915C37.5632 20.6862 36.5985 20.6865 36.0035 20.0915C35.4085 19.4965 35.4088 18.5318 36.0035 17.9371C36.5985 17.3421 37.563 17.3421 38.158 17.9371ZM14.0316 42.0634C13.4366 41.4684 13.4366 40.504 14.0316 39.909C14.6266 39.314 15.591 39.314 16.1861 39.909C16.7811 40.504 16.7811 41.4684 16.1861 42.0634C15.591 42.6584 14.6266 42.6584 14.0316 42.0634ZM18.168 37.927C17.573 37.332 17.573 36.3676 18.168 35.7726C18.7627 35.1778 19.7275 35.1776 20.3225 35.7726C20.9175 36.3676 20.9172 37.3323 20.3225 37.927C19.7275 38.522 18.763 38.522 18.168 37.927ZM17.8378 45.8696C17.2428 45.2746 17.2428 44.3102 17.8378 43.7152C18.4328 43.1202 19.3973 43.1202 19.9923 43.7152C20.5873 44.3102 20.5873 45.2746 19.9923 45.8696C19.3973 46.4647 18.4328 46.4647 17.8378 45.8696ZM21.9739 41.7335C21.3789 41.1385 21.3792 40.1738 21.9739 39.5791C22.5689 38.9841 23.5334 38.9841 24.1284 39.5791C24.7234 40.1741 24.7234 41.1385 24.1284 41.7335C23.5337 42.3282 22.5689 42.3285 21.9739 41.7335ZM21.7158 49.7477C21.1208 49.1527 21.1208 48.1882 21.7158 47.5932C22.3108 46.9982 23.2753 46.9982 23.8703 47.5932C24.4653 48.1882 24.4653 49.1527 23.8703 49.7477C23.2753 50.3427 22.3108 50.3427 21.7158 49.7477ZM25.852 45.6116C25.257 45.0166 25.2572 44.0518 25.852 43.4571C26.447 42.8621 27.4114 42.8621 28.0064 43.4571C28.6014 44.0521 28.6014 45.0166 28.0064 45.6116C27.4117 46.2063 26.447 46.2066 25.852 45.6116ZM43.6878 27.7758C43.0927 27.1808 43.093 26.216 43.6878 25.6213C44.2828 25.0263 45.2472 25.0263 45.8422 25.6213C46.4372 26.2163 46.4372 27.1808 45.8422 27.7758C45.2475 28.3705 44.2828 28.3708 43.6878 27.7758ZM47.8242 23.6394C47.2292 23.0444 47.2292 22.0799 47.8242 21.4849C48.4192 20.8899 49.3836 20.8899 49.9786 21.4849C50.5736 22.0799 50.5736 23.0444 49.9786 23.6394C49.3836 24.2344 48.4192 24.2344 47.8242 23.6394Z" fill="white"/>
<defs>
<linearGradient id="paint0_linear" x1="0" y1="0" x2="64" y2="64" gradientUnits="userSpaceOnUse">
<stop stop-color="#0F44B2"/>
<stop offset="1" stop-color="#247EE5"/>
</linearGradient>
</defs>
</svg>
