<?xml version="1.0" encoding="utf-8"?>
<!-- Generator: Adobe Illustrator 24.1.0, SVG Export Plug-In . SVG Version: 6.00 Build 0)  -->
<svg version="1.1" id="Layer_1" xmlns="http://www.w3.org/2000/svg" xmlns:xlink="http://www.w3.org/1999/xlink" x="0px" y="0px"
	 viewBox="0 0 512 512" style="enable-background:new 0 0 512 512;" xml:space="preserve">
<linearGradient id="Gradient2" x1="0" x2="0" y1="0" y2="1">
        <stop offset="0%" stop-color="#0f44b2"/>
        <stop offset="100%" stop-color="#247ee5"/>
      </linearGradient>
	<style type="text/css">
	.st0{fill:url(#Gradient2);stroke:#FFFFFF;stroke-width:3;}
	.st1{fill:#FFFFFF;}
</style>
<circle class="st0" cx="256" cy="256" r="254.5"/>
<path class="st1" d="M255.3,46c-46.5,0-84.1,37.6-84.1,84.1l0.1,247.7c0,46.5,37.6,84.1,84.1,84.1c46.5,0,84.1-37.6,84.1-84.1
	l0-247.6C339.5,83.6,301.8,46,255.3,46z M255.4,94.1c6.8,0,12.2,5.4,12.2,12.2c0,6.8-5.4,12.2-12.2,12.2c-6.8,0-12.2-5.4-12.2-12.2
	C243.1,99.6,248.6,94.1,255.4,94.1z M255.3,140.8c6.8,0,12.2,5.4,12.2,12.2c0,6.8-5.4,12.2-12.2,12.2c-6.8,0-12.2-5.4-12.2-12.2
	C243.1,146.4,248.7,140.8,255.3,140.8z M287.8,205.1c4.5,0,8.3,3.7,8.3,8.3v81c0,4.5-3.7,8.3-8.3,8.3h-64.9c-4.5,0-8.3-3.7-8.3-8.3
	v-81c0-4.5,3.7-8.3,8.3-8.3L287.8,205.1z M212.3,94c6.8,0,12.2,5.4,12.2,12.2c-0.1,6.7-5.4,12.2-12.2,12.2
	c-6.8,0-12.2-5.4-12.2-12.2C200.1,99.5,205.5,94,212.3,94z M212.3,140.8c6.8,0,12.2,5.4,12.2,12.2c0,6.8-5.4,12.2-12.2,12.2
	c-6.8,0-12.2-5.4-12.2-12.2C200.1,146.3,205.5,140.8,212.3,140.8z M212.3,413.8c-6.8,0-12.2-5.4-12.2-12.2c0-6.8,5.4-12.2,12.2-12.2
	c6.8,0,12.2,5.4,12.2,12.2C224.5,408.4,219,413.9,212.3,413.8z M212.2,367c-6.8,0-12.2-5.4-12.2-12.2c0-6.8,5.4-12.2,12.2-12.2
	c6.8,0,12.2,5.4,12.2,12.2C224.5,361.6,219,367,212.2,367z M255.4,413.9c-6.8,0-12.2-5.4-12.2-12.2c0-6.8,5.4-12.2,12.2-12.2
	c6.8,0,12.2,5.4,12.2,12.2C267.5,408.3,262.1,413.8,255.4,413.9z M255.4,367c-6.8,0-12.2-5.4-12.2-12.2c0-6.8,5.4-12.2,12.2-12.2
	c6.8,0,12.2,5.4,12.2,12.2C267.5,361.5,262.1,367,255.4,367z M299.2,413.9c-6.8,0-12.2-5.4-12.2-12.2c0-6.8,5.4-12.2,12.2-12.2
	c6.8,0,12.2,5.4,12.2,12.2C311.4,408.3,305.9,413.8,299.2,413.9z M299.2,367c-6.8,0-12.2-5.4-12.2-12.2c0-6.8,5.4-12.2,12.2-12.2
	c6.8,0,12.2,5.4,12.2,12.2C311.4,361.5,306,367,299.2,367z M299.2,165.2c-6.8,0-12.2-5.4-12.2-12.2c0-6.8,5.4-12.2,12.2-12.2
	c6.8,0,12.2,5.4,12.2,12.2C311.4,159.8,306,165.2,299.2,165.2z M299.2,118.4c-6.8,0-12.2-5.4-12.2-12.2c0-6.8,5.4-12.2,12.2-12.2
	c6.8,0,12.2,5.4,12.2,12.2C311.4,113,306,118.4,299.2,118.4z M47.9,254.9c0,46.5,37.6,84.1,84.1,84.1l247.7-0.1
	c46.5,0,84.1-37.6,84.1-84.1s-37.6-84.1-84.1-84.1l-247.6,0C85.6,170.7,47.9,208.4,47.9,254.9z M96.1,254.9
	c0-6.8,5.4-12.2,12.2-12.2c6.8,0,12.2,5.4,12.2,12.2c0,6.8-5.4,12.2-12.2,12.2C101.5,267.1,96.1,261.7,96.1,254.9z M142.8,254.9
	c0-6.8,5.4-12.2,12.2-12.2c6.8,0,12.2,5.4,12.2,12.2c0,6.8-5.4,12.2-12.2,12.2C148.3,267.1,142.8,261.6,142.8,254.9z M207.1,222.5
	c0-4.5,3.7-8.3,8.3-8.3l81,0c4.5,0,8.3,3.7,8.3,8.3v64.9c0,4.5-3.7,8.3-8.3,8.3h-81c-4.5,0-8.3-3.7-8.3-8.3V222.5z M96,297.9
	c0-6.8,5.4-12.2,12.2-12.2c6.7,0.1,12.2,5.4,12.2,12.2c0,6.8-5.4,12.2-12.2,12.2C101.5,310.2,96,304.7,96,297.9z M142.8,297.9
	c0-6.8,5.4-12.2,12.2-12.2c6.8,0,12.2,5.4,12.2,12.2c0,6.8-5.4,12.2-12.2,12.2C148.3,310.2,142.8,304.7,142.8,297.9z M415.8,297.9
	c0,6.8-5.4,12.2-12.2,12.2c-6.8,0-12.2-5.4-12.2-12.2c0-6.8,5.4-12.2,12.2-12.2C410.4,285.8,415.8,291.2,415.8,297.9z M369,298
	c0,6.8-5.4,12.2-12.2,12.2c-6.8,0-12.2-5.4-12.2-12.2c0-6.8,5.4-12.2,12.2-12.2C363.6,285.8,369,291.2,369,298z M415.8,254.9
	c0,6.8-5.4,12.2-12.2,12.2c-6.8,0-12.2-5.4-12.2-12.2c0-6.8,5.4-12.2,12.2-12.2C410.3,242.7,415.8,248.1,415.8,254.9z M369,254.9
	c0,6.8-5.4,12.2-12.2,12.2c-6.8,0-12.2-5.4-12.2-12.2c0-6.8,5.4-12.2,12.2-12.2C363.5,242.7,369,248.1,369,254.9z M415.8,211
	c0,6.8-5.4,12.2-12.2,12.2c-6.8,0-12.2-5.4-12.2-12.2c0-6.8,5.4-12.2,12.2-12.2C410.3,198.9,415.8,204.3,415.8,211z M369,211
	c0,6.8-5.4,12.2-12.2,12.2c-6.8,0-12.2-5.4-12.2-12.2c0-6.8,5.4-12.2,12.2-12.2C363.5,198.9,369,204.2,369,211z M167.2,211
	c0,6.8-5.4,12.2-12.2,12.2c-6.8,0-12.2-5.4-12.2-12.2c0-6.8,5.4-12.2,12.2-12.2C161.8,198.8,167.2,204.2,167.2,211z M120.4,211
	c0,6.8-5.4,12.2-12.2,12.2c-6.8,0-12.2-5.4-12.2-12.2c0-6.8,5.4-12.2,12.2-12.2C115,198.8,120.4,204.2,120.4,211z"/>
</svg>
