<?xml version="1.0" encoding="utf-8"?>
<!-- Generator: Adobe Illustrator 24.1.0, SVG Export Plug-In . SVG Version: 6.00 Build 0)  -->
<svg version="1.1" id="Layer_1" xmlns="http://www.w3.org/2000/svg" xmlns:xlink="http://www.w3.org/1999/xlink" x="0px" y="0px"
	 viewBox="0 0 256 256" style="enable-background:new 0 0 256 256;" xml:space="preserve">
<style type="text/css">
	.st0{enable-background:new    ;}
	.st1{fill:#FFFFFF;}
	.st2{fill:#01194B;}
</style>
<g id="Shape_1_1_" class="st0">
	<g id="Shape_1">
		<g>
			<circle class="st1" cx="127.7" cy="128.3" r="126.7"/>
		</g>
	</g>
</g>
<g id="_xF151_">
	<g>
		<path class="st2" d="M200.4,169.7c0,8.4-2.5,15-7.6,19.7c-5.1,4.7-11.7,7.1-20,7.2H82.2c-8.3,0-15-2.4-20-7.2
			c-5.1-4.8-7.6-11.4-7.6-19.7c0-4.7,0.2-9.2,0.6-13.5c0.4-4.3,1.2-9.1,2.6-14.3c1.4-5.2,3-9.8,4.8-13.7c1.9-4,4.6-7.5,8.3-10.8
			c3.7-3.2,7.8-5.3,12.4-6.1c-1.5,3.6-2.2,7.7-2.2,12.4v21c-4,1.4-7.2,3.8-9.6,7.2c-2.5,3.5-3.7,7.3-3.7,11.5c0,5.6,2,10.3,5.9,14.1
			c4,3.8,8.7,5.7,14.1,5.7c5.4,0,10.1-1.9,13.9-5.7c3.8-3.8,5.8-8.5,5.9-14.1c0-4.2-1.2-8-3.7-11.5c-2.5-3.5-5.7-5.9-9.6-7.2v-21
			c0-4.3,0.9-7.5,2.6-9.6c9.1,7.2,19.3,10.8,30.6,10.8c11.2,0,21.4-3.6,30.4-10.8c1.7,2.1,2.6,5.3,2.6,9.6v6.5
			c-7.3,0-13.5,2.6-18.7,7.8c-5.2,5.2-7.7,11.4-7.6,18.7v9.3c-2.2,2-3.3,4.4-3.3,7.2c0,2.8,0.9,5.2,2.8,7s4.2,2.8,7,3
			c2.8,0.1,5.2-0.9,7-3c1.9-2.1,2.8-4.4,3-6.9c0-3-1.1-5.4-3.3-7.4v-9.3c0-3.6,1.3-6.7,3.9-9.3s5.7-3.9,9.3-3.9
			c3.6,0,6.7,1.3,9.5,3.9c2.7,2.6,4,5.7,3.9,9.3v9.3c-2.2,2-3.3,4.4-3.3,7.2c0,2.8,1,5.2,3,7c2,1.9,4.3,2.8,7,3c2.7,0.1,5.1-0.9,7-3
			c2-2.1,2.9-4.4,2.8-6.9c0-3-1.1-5.4-3.3-7.4v-9.3c0-4.7-1.2-9.1-3.5-13.2c-2.4-4.1-5.6-7.3-9.6-9.6v-9.5c0-1.1-0.1-2.5-0.2-4.3
			c-0.1-1.7-0.4-3.3-0.7-4.8c-0.4-1.5-0.8-2.8-1.3-4.1c4.7,1,8.8,3,12.4,6.1c3.6,3.1,6.4,6.7,8.3,10.8c2,4.1,3.6,8.7,4.8,13.7
			c1.2,5.1,2.1,9.8,2.6,14.3S200.5,165.1,200.4,169.7z M94.3,163.4c0,1.7-0.6,3.3-1.9,4.6c-1.2,1.4-2.8,2-4.6,2
			c-1.9,0-3.5-0.7-4.8-2c-1.4-1.4-2-2.9-1.9-4.6c0.1-1.7,0.7-3.3,1.9-4.6c1.1-1.4,2.7-2,4.8-2c2.1,0,3.6,0.7,4.6,2
			C93.4,160.1,94,161.7,94.3,163.4z M167.2,77.3c0,10.9-3.9,20.2-11.7,28c-7.8,7.8-17.1,11.7-28,11.7c-10.9,0-20.3-3.9-28.2-11.7
			c-7.9-7.8-11.7-17.1-11.5-28c0.2-10.9,4.1-20.3,11.5-28.2c7.4-7.9,16.8-11.8,28.2-11.7c11.4,0.1,20.7,4,28,11.7
			C162.8,56.8,166.7,66.2,167.2,77.3z"/>
	</g>
</g>
</svg>
