<svg width="30" height="30" viewBox="0 0 30 30" fill="none" xmlns="http://www.w3.org/2000/svg">
<path d="M22.5869 17.2457L16.9212 22.9114C14.206 25.6266 9.80377 25.6266 7.08857 22.9114C4.37337 20.1962 4.37337 15.794 7.08857 13.0788L14.7151 5.45228C16.5266 3.64077 19.4637 3.64077 21.2752 5.45228C23.0867 7.26379 23.0867 10.2008 21.2752 12.0123L13.4084 19.8791C12.5572 20.7303 11.1773 20.7303 10.3262 19.8791C9.4751 19.028 9.4751 17.6481 10.3262 16.797L16.2322 10.891C16.5321 10.5911 16.5321 10.1048 16.2322 9.80485C15.9323 9.50492 15.446 9.50492 15.1461 9.80485L9.24007 15.7109C7.78911 17.1618 7.78911 19.5143 9.24007 20.9653C10.691 22.4162 13.0435 22.4162 14.4945 20.9653L22.3613 13.0985C24.7727 10.6871 24.7727 6.77751 22.3613 4.36615C19.9499 1.95478 16.0403 1.95478 13.629 4.36615L6.00243 11.9927C2.68738 15.3077 2.68738 20.6825 6.00243 23.9976C9.31749 27.3126 14.6922 27.3126 18.0073 23.9976L23.673 18.3318C23.973 18.0319 23.973 17.5456 23.673 17.2457C23.3731 16.9457 22.8868 16.9457 22.5869 17.2457Z" fill="#247EE5"/>
</svg>
