<svg width="20" height="20" viewBox="0 0 20 20" fill="none" xmlns="http://www.w3.org/2000/svg">
<path d="M10 0.25C4.61406 0.25 0.25 4.61406 0.25 10C0.25 15.3859 4.61406 19.75 10 19.75C15.3859 19.75 19.75 15.3859 19.75 10C19.75 4.61406 15.3859 0.25 10 0.25ZM9.79844 14.5C9.24531 14.5 8.79531 14.0781 8.79531 13.5344C8.79531 12.9953 9.24531 12.5687 9.79844 12.5687C10.3562 12.5687 10.8063 12.9906 10.8063 13.5344C10.8063 14.0781 10.3609 14.5 9.79844 14.5ZM11.6828 9.95781C10.8672 10.4313 10.5906 10.7781 10.5906 11.3781V11.7484H8.96406L8.95 11.3453C8.87031 10.3797 9.20781 9.77969 10.0563 9.28281C10.8484 8.80937 11.1813 8.50938 11.1813 7.92813C11.1813 7.34688 10.6188 6.92031 9.92031 6.92031C9.2125 6.92031 8.70156 7.37969 8.66406 8.07344H7C7.03281 6.56406 8.14844 5.49531 10.0328 5.49531C11.7906 5.49531 13 6.47031 13 7.87188C13 8.80469 12.55 9.44688 11.6828 9.95781Z" fill="#81B5FF"/>
</svg>
