<svg width="82" height="82" viewBox="0 0 82 82" fill="none" xmlns="http://www.w3.org/2000/svg">
<g clip-path="url(#clip0)">
<path d="M81.8419 44.7878C81.1057 37.3823 77.7973 30.4009 72.5258 25.1292C68.0209 20.6244 62.5069 17.7296 56.705 16.4424V12.3731C59.0747 11.7835 60.8361 9.63852 60.8361 7.08895C60.8361 4.0863 58.3934 1.64355 55.3907 1.64355H43.8593C40.8567 1.64355 38.4139 4.0863 38.4139 7.08895C38.4139 9.63836 40.1753 11.7834 42.5449 12.3731V16.4538C36.7608 17.7464 31.2651 20.6373 26.7729 25.1294C25.7899 26.1124 24.8834 27.1437 24.0536 28.2155C24.0134 28.2124 23.9732 28.2094 23.9322 28.2094H12.5191C11.6347 28.2094 10.9175 28.9264 10.9175 29.811C10.9175 30.6956 11.6347 31.4126 12.5191 31.4126H21.8743C20.7 33.3785 19.7532 35.4431 19.0325 37.5684H1.60159C0.717191 37.5684 0 38.2855 0 39.17C0 40.0546 0.717191 40.7716 1.60159 40.7716H18.1274C17.6658 42.7978 17.4009 44.8598 17.3325 46.9276H10.2502C9.36576 46.9276 8.64857 47.6447 8.64857 48.5292C8.64857 49.4138 9.36576 50.1308 10.2502 50.1308H17.3836C17.5188 52.2039 17.8521 54.2661 18.3837 56.2868H8.00794C7.12354 56.2868 6.40635 57.0039 6.40635 57.8884C6.40635 58.773 7.12354 59.49 8.00794 59.49H19.4058C20.977 63.6463 23.4323 67.5418 26.7729 70.8824C32.0495 76.159 39.0382 79.4682 46.4513 80.2006C47.5093 80.305 48.5681 80.3568 49.6255 80.3568C55.8752 80.3568 62.0455 78.5481 67.2811 75.1386C68.0223 74.6559 68.2319 73.6637 67.7492 72.9225C67.2665 72.1813 66.2743 71.9717 65.5331 72.4544C54.0726 79.9173 38.7241 78.3037 29.0379 68.6175C17.6727 57.2523 17.6727 38.7599 29.0379 27.3945C40.4029 16.0295 58.8953 16.0295 70.2607 27.3945C79.9341 37.0681 81.5565 52.4035 74.1183 63.8583C73.6365 64.6002 73.8474 65.5922 74.5891 66.0738C75.3313 66.5556 76.323 66.3446 76.8046 65.6028C80.7788 59.4823 82.5678 52.0902 81.8419 44.7878ZM41.6171 7.08911C41.6171 5.85269 42.6229 4.84689 43.8593 4.84689H55.3907C56.6272 4.84689 57.633 5.85269 57.633 7.08911C57.633 8.32554 56.6272 9.33133 55.3907 9.33133H55.1034H44.1465H43.8593C42.6229 9.33133 41.6171 8.32538 41.6171 7.08911ZM45.7481 15.9031V12.5345H53.5018V15.8974C50.9271 15.5911 48.3223 15.5931 45.7481 15.9031Z" fill="#0F44B2"/>
<path d="M71.3939 68.1475C70.9711 68.1475 70.5595 68.3188 70.2618 68.6167C69.9623 68.9146 69.7924 69.3278 69.7924 69.749C69.7924 70.1702 69.9623 70.5834 70.2618 70.8813C70.5595 71.1808 70.9713 71.3506 71.3939 71.3506C71.8151 71.3506 72.2267 71.1808 72.5262 70.8813C72.8241 70.5834 72.9955 70.1702 72.9955 69.749C72.9955 69.3278 72.8243 68.9146 72.5262 68.6167C72.2267 68.3188 71.815 68.1475 71.3939 68.1475Z" fill="#0F44B2"/>
<path d="M49.6493 23.1602C35.9497 23.1602 24.8041 34.3056 24.8041 48.0054C24.8041 61.7052 35.9497 72.8507 49.6493 72.8507C63.349 72.8507 74.4946 61.7052 74.4946 48.0054C74.4946 34.3056 63.349 23.1602 49.6493 23.1602ZM49.6493 69.6475C37.7158 69.6475 28.0073 59.9389 28.0073 48.0054C28.0073 36.072 37.7158 26.3633 49.6493 26.3633C61.5829 26.3633 71.2914 36.072 71.2914 48.0054C71.2914 59.9389 61.5829 69.6475 49.6493 69.6475Z" fill="#0F44B2"/>
<path d="M59.7804 35.6097L51.8477 43.5422C51.1843 43.2142 50.4382 43.0289 49.6494 43.0289C48.8604 43.0289 48.1144 43.2142 47.4511 43.5422L43.9008 39.992C43.2752 39.3665 42.2614 39.3665 41.6357 39.992C41.0103 40.6174 41.0103 41.6315 41.6357 42.2569L45.1859 45.8072C44.8578 46.4705 44.6726 47.2167 44.6726 48.0055C44.6726 50.7497 46.9051 52.9823 49.6494 52.9823C52.3937 52.9823 54.6262 50.7497 54.6262 48.0055C54.6262 47.2167 54.4409 46.4705 54.1129 45.8072L61.8126 38.1074L62.0453 37.8747C62.6708 37.2492 62.6708 36.2351 62.0453 35.6097C61.4199 34.9843 60.4061 34.9843 59.7804 35.6097ZM49.6494 49.7793C48.6715 49.7793 47.8758 48.9836 47.8758 48.0057C47.8758 47.0277 48.6715 46.2321 49.6494 46.2321C50.6273 46.2321 51.423 47.0277 51.423 48.0057C51.423 48.9836 50.6273 49.7793 49.6494 49.7793Z" fill="#0F44B2"/>
<path d="M66.7734 46.4238H65.2896C64.4052 46.4238 63.688 47.1408 63.688 48.0254C63.688 48.9099 64.4052 49.627 65.2896 49.627H66.7734C67.6578 49.627 68.375 48.9099 68.375 48.0254C68.375 47.1408 67.6578 46.4238 66.7734 46.4238Z" fill="#0F44B2"/>
<path d="M34.0091 46.3848H32.5254C31.641 46.3848 30.9238 47.1018 30.9238 47.9863C30.9238 48.8709 31.641 49.5879 32.5254 49.5879H34.0091C34.8935 49.5879 35.6106 48.8709 35.6106 47.9863C35.6106 47.1018 34.8935 46.3848 34.0091 46.3848Z" fill="#0F44B2"/>
<path d="M49.6689 33.9671C50.5533 33.9671 51.2705 33.2501 51.2705 32.3655V30.8818C51.2705 29.9973 50.5533 29.2803 49.6689 29.2803C48.7846 29.2803 48.0674 29.9973 48.0674 30.8818V32.3655C48.0674 33.2501 48.7846 33.9671 49.6689 33.9671Z" fill="#0F44B2"/>
<path d="M49.6298 62.0449C48.7454 62.0449 48.0282 62.7619 48.0282 63.6465V65.1302C48.0282 66.0147 48.7454 66.7317 49.6298 66.7317C50.5141 66.7317 51.2313 66.0147 51.2313 65.1302V63.6465C51.2313 62.7619 50.5141 62.0449 49.6298 62.0449Z" fill="#0F44B2"/>
<path d="M1.60156 56.2861C1.18035 56.2861 0.767148 56.4575 0.469258 56.7554C0.171367 57.0533 0 57.4665 0 57.8877C0 58.3105 0.171207 58.7221 0.469258 59.02C0.767309 59.3179 1.18035 59.4893 1.60156 59.4893C2.02277 59.4893 2.43598 59.3179 2.73371 59.02C3.0316 58.7221 3.20312 58.3089 3.20312 57.8877C3.20312 57.4665 3.03176 57.0533 2.73371 56.7554C2.43598 56.4575 2.02277 56.2861 1.60156 56.2861Z" fill="#0F44B2"/>
</g>
<defs>
<clipPath id="clip0">
<rect width="82" height="82" fill="white"/>
</clipPath>
</defs>
</svg>
