<svg width="80" height="80" viewBox="0 0 80 80" fill="none" xmlns="http://www.w3.org/2000/svg">
<path d="M40 6.25195C39.1347 6.25195 38.4391 6.94883 38.4391 7.81289C38.4391 8.61711 39.0441 9.28633 39.8438 9.3657C40.7696 9.45758 41.561 8.73648 41.561 7.81289C41.561 6.94758 40.8641 6.25195 40 6.25195Z" fill="#0F44B2"/>
<path d="M71.25 9.375C66.9422 9.375 63.4375 5.87031 63.4375 1.5625C63.4375 0.699688 62.7378 0 61.875 0H18.125C17.2622 0 16.5625 0.699688 16.5625 1.5625C16.5625 5.87031 13.0578 9.375 8.75 9.375C7.88719 9.375 7.1875 10.0747 7.1875 10.9375V36.4359C7.1875 56.3073 20.1398 74.1133 39.5513 79.9342C39.6977 79.978 39.8488 80 40 80C40.1512 80 40.3027 79.978 40.4489 79.9341C59.4398 74.2373 72.8125 56.742 72.8125 36.4359V10.9375C72.8125 10.0747 72.1128 9.375 71.25 9.375ZM69.6875 36.4359C69.6875 55.0997 57.778 71.2628 40 76.8036C22.3637 71.307 10.3125 54.9975 10.3125 36.4359V12.3888C15.0955 11.7016 18.8891 7.90797 19.5763 3.125H60.4238C61.1109 7.90797 64.9045 11.7016 69.6875 12.3888V36.4359Z" fill="#0F44B2"/>
<path d="M65.6269 14.4516C62.3684 13.0245 59.788 10.4441 58.3609 7.18562C58.1119 6.61719 57.5503 6.25 56.9297 6.25H46.2469C45.3841 6.25 44.6844 6.94969 44.6844 7.8125C44.6844 8.67531 45.3841 9.375 46.2469 9.375H55.9417C57.5925 12.6064 60.2061 15.2198 63.4375 16.8708V36.4359C63.4375 51.727 54.258 64.9208 40 70.2022C25.742 64.9206 16.5625 51.727 16.5625 36.4359V16.8708C19.7939 15.2198 22.4073 12.6064 24.0583 9.375H33.7531C34.6159 9.375 35.3156 8.67531 35.3156 7.8125C35.3156 6.94969 34.6159 6.25 33.7531 6.25H23.0703C22.4497 6.25 21.8881 6.61734 21.6391 7.18562C20.212 10.4441 17.6316 13.0245 14.3731 14.4516C13.8048 14.7006 13.4375 15.2623 13.4375 15.8828V36.4359C13.4375 53.188 23.7986 67.788 39.4788 73.3369C39.6473 73.3966 39.8236 73.4264 40 73.4264C40.1764 73.4264 40.3527 73.3966 40.5212 73.3369C56.1883 67.7927 66.5625 53.2016 66.5625 36.4359V15.8828C66.5625 15.2622 66.1952 14.7006 65.6269 14.4516Z" fill="#0F44B2"/>
<path d="M40 22.8125C32.2459 22.8125 25.9375 29.1209 25.9375 36.875C25.9375 44.6291 32.2459 50.9375 40 50.9375C47.7541 50.9375 54.0625 44.6291 54.0625 36.875C54.0625 29.1209 47.7541 22.8125 40 22.8125ZM40 47.8125C33.9691 47.8125 29.0625 42.9059 29.0625 36.875C29.0625 30.8441 33.9691 25.9375 40 25.9375C46.0309 25.9375 50.9375 30.8441 50.9375 36.875C50.9375 42.9059 46.0309 47.8125 40 47.8125Z" fill="#0F44B2"/>
<path d="M47.3548 32.645C46.7445 32.035 45.7555 32.035 45.145 32.645L38.4375 39.3527L36.4173 37.3327C35.807 36.7227 34.818 36.7227 34.2075 37.3327C33.5973 37.9428 33.5973 38.9322 34.2075 39.5425L37.3325 42.6675C37.6378 42.9724 38.0375 43.125 38.4375 43.125C38.8375 43.125 39.2372 42.9724 39.5423 42.6674L47.3548 34.8548C47.965 34.2447 47.965 33.2553 47.3548 32.645Z" fill="#0F44B2"/>
</svg>
