<svg width="80" height="80" viewBox="0 0 80 80" fill="none" xmlns="http://www.w3.org/2000/svg">
<path d="M48.4375 29.6875C47.575 29.6875 46.875 30.3875 46.875 31.25C46.875 32.1125 47.575 32.8125 48.4375 32.8125C49.3 32.8125 50 32.1125 50 31.25C50 30.3875 49.3 29.6875 48.4375 29.6875Z" fill="#0F44B2"/>
<path d="M78.1689 69.3311L57.3127 48.4748C60.7103 43.357 62.5 37.4305 62.5 31.25C62.5 14.0188 48.4813 0 31.25 0C14.0188 0 0 14.0188 0 31.25C0 48.4813 14.0188 62.5 31.25 62.5C37.4306 62.5 43.3572 60.7102 48.4748 57.3128L54.2397 63.0777C54.2405 63.0784 54.2412 63.0792 54.2422 63.0802L69.3309 78.1689C70.5119 79.3497 72.0811 80 73.75 80C75.4189 80 76.9881 79.3497 78.1684 78.1694C79.3495 76.9892 80 75.4198 80 73.75C80 72.0802 79.3495 70.5108 78.1689 69.3311ZM47.74 54.0198C47.74 54.02 47.7398 54.02 47.7397 54.0202C42.9167 57.5233 37.2148 59.375 31.25 59.375C15.7419 59.375 3.125 46.7581 3.125 31.25C3.125 15.7419 15.7419 3.125 31.25 3.125C46.7581 3.125 59.375 15.7419 59.375 31.25C59.375 37.2148 57.5233 42.9167 54.02 47.7398C52.2673 50.1544 50.1545 52.2673 47.74 54.0198ZM51.0181 55.4364C52.6353 54.1134 54.1136 52.6352 55.4364 51.0181L59.8694 55.4511C58.5213 57.0422 57.0422 58.5214 55.4511 59.8694L51.0181 55.4364ZM75.9592 75.9592C75.3686 76.5498 74.5841 76.875 73.75 76.875C72.9159 76.875 72.1314 76.5498 71.5408 75.9592L57.6666 62.085C59.2489 60.727 60.727 59.2491 62.0848 57.6667L75.9595 71.5414C76.5498 72.1311 76.875 72.9153 76.875 73.75C76.875 74.5847 76.5498 75.3689 75.9592 75.9592Z" fill="#0F44B2"/>
<path d="M31.25 6.25C17.4648 6.25 6.25 17.4648 6.25 31.25C6.25 45.0352 17.4648 56.25 31.25 56.25C45.0352 56.25 56.25 45.0352 56.25 31.25C56.25 17.4648 45.0352 6.25 31.25 6.25ZM31.25 53.125C19.1881 53.125 9.375 43.3119 9.375 31.25C9.375 19.1881 19.1881 9.375 31.25 9.375C43.3119 9.375 53.125 19.1881 53.125 31.25C53.125 43.3119 43.3119 53.125 31.25 53.125Z" fill="#0F44B2"/>
<path d="M48.7602 24.5427C47.4147 21.0408 45.072 18.0467 41.9852 15.8844C38.8248 13.6703 35.1127 12.5 31.25 12.5C30.3872 12.5 29.6875 13.1997 29.6875 14.0625C29.6875 14.9253 30.3872 15.625 31.25 15.625C37.6717 15.625 43.5361 19.6591 45.8431 25.6636C46.0819 26.2848 46.6739 26.6661 47.302 26.6661C47.4883 26.6661 47.6778 26.6325 47.862 26.5617C48.6675 26.2522 49.0697 25.3483 48.7602 24.5427Z" fill="#0F44B2"/>
</svg>
