<svg width="80" height="80" viewBox="0 0 80 80" fill="none" xmlns="http://www.w3.org/2000/svg">
<g clip-path="url(#clip0)">
<path d="M79.7441 33.6832L66.9332 14.148C66.6443 13.7077 66.1533 13.4424 65.6268 13.4424H14.4341C13.9086 13.4424 13.4185 13.7064 13.1294 14.1454L0.297852 33.6222C0.236758 33.7064 0.183789 33.7974 0.139571 33.8946C-0.113711 34.453 -0.0168357 35.1079 0.387227 35.5691L6.89113 42.9952C7.45973 43.6444 8.4466 43.7097 9.09566 43.1413C9.74473 42.5727 9.81004 41.5857 9.2416 40.9368L5.0077 36.1022H26.0235L36.5839 72.1564L24.6504 58.5307C24.0819 57.8814 23.0947 57.8161 22.4458 58.3846C21.7968 58.9532 21.7314 59.9402 22.2999 60.5891L38.8296 79.4627C39.1261 79.8014 39.5547 79.9958 40.0049 79.9958C40.4552 79.9958 40.8835 79.8014 41.18 79.4625L58.7785 59.3638C59.3471 58.7146 59.2816 57.7275 58.6322 57.1593C57.9828 56.5907 56.9958 56.6561 56.4277 57.3055L43.4261 72.1544L53.9861 36.1021H74.9932L65.2771 47.1989C64.7085 47.8482 64.7739 48.8352 65.4233 49.4035C65.7197 49.6632 66.0866 49.7905 66.4519 49.7905C66.8866 49.7905 67.3191 49.61 67.6278 49.2572L79.6132 35.5689C80.0753 35.0411 80.1289 34.2699 79.7441 33.6832ZM4.46457 32.9775L14.431 17.8493L24.3521 32.9775H4.46457ZM17.3269 16.5672H37.1118L27.2194 31.6518L17.3269 16.5672ZM40.0047 17.8538L49.9227 32.9775H30.0868L40.0047 17.8538ZM40.0047 72.7194L29.2794 36.1022H50.73L40.0047 72.7194ZM52.8157 31.691L42.8977 16.5672H62.7339L52.8157 31.691ZM55.7086 32.9775L65.6268 17.8538L75.5446 32.9775H55.7086Z" fill="#0F44B2"/>
<path d="M24.5608 51.096C20.5306 51.096 17.2517 47.8171 17.2517 43.787C17.2517 42.9241 16.5522 42.2246 15.6894 42.2246C14.8266 42.2246 14.127 42.9241 14.127 43.787C14.127 47.8171 10.8481 51.096 6.81796 51.096C5.9553 51.096 5.25562 51.7955 5.25562 52.6584C5.25562 53.5212 5.9553 54.2207 6.81796 54.2207C10.8481 54.2207 14.127 57.4996 14.127 61.5298C14.127 62.3926 14.8267 63.0921 15.6894 63.0921C16.552 63.0921 17.2517 62.3926 17.2517 61.5298C17.2517 57.4996 20.5306 54.2207 24.5608 54.2207C25.4236 54.2207 26.1231 53.5212 26.1231 52.6584C26.1231 51.7955 25.4236 51.096 24.5608 51.096ZM15.6894 56.0429C14.8376 54.6707 13.677 53.5102 12.305 52.6584C13.677 51.8066 14.8375 50.6462 15.6894 49.2738C16.5411 50.646 17.7017 51.8065 19.0737 52.6584C17.7017 53.5102 16.5412 54.6705 15.6894 56.0429Z" fill="#0F44B2"/>
<path d="M78.4377 6.25328C75.8533 6.25328 73.7506 4.15063 73.7506 1.56625C73.7506 0.703437 73.051 0.00390625 72.1883 0.00390625C71.3256 0.00390625 70.626 0.703437 70.626 1.56625C70.626 4.15063 68.5233 6.25328 65.9389 6.25328C65.0763 6.25328 64.3766 6.95281 64.3766 7.81562C64.3766 8.67844 65.0763 9.37797 65.9389 9.37797C68.5233 9.37797 70.626 11.4806 70.626 14.065C70.626 14.9278 71.3256 15.6273 72.1883 15.6273C73.051 15.6273 73.7506 14.9278 73.7506 14.065C73.7506 11.4806 75.8533 9.37797 78.4377 9.37797C79.3003 9.37797 80 8.67844 80 7.81562C80 6.95281 79.3003 6.25328 78.4377 6.25328ZM72.1883 9.38281C71.7425 8.78937 71.2146 8.26141 70.6211 7.81562C71.2146 7.36984 71.7425 6.84188 72.1883 6.24844C72.6341 6.84188 73.1621 7.36984 73.7555 7.81562C73.1621 8.26125 72.6339 8.78937 72.1883 9.38281Z" fill="#0F44B2"/>
<path d="M62.9348 52.4012C62.6443 52.109 62.2412 51.9434 61.8304 51.9434C61.4193 51.9434 61.0181 52.109 60.7259 52.4012C60.4353 52.6918 60.2681 53.0949 60.2681 53.5057C60.2681 53.9165 60.4351 54.3196 60.7259 54.6102C61.0165 54.9009 61.4193 55.068 61.8304 55.068C62.2413 55.068 62.6443 54.9009 62.9348 54.6102C63.2254 54.3196 63.3928 53.9165 63.3928 53.5057C63.3928 53.0949 63.2256 52.6918 62.9348 52.4012Z" fill="#0F44B2"/>
</g>
<defs>
<clipPath id="clip0">
<rect width="80" height="80" fill="white"/>
</clipPath>
</defs>
</svg>
